<?xml version="1.0" standalone="no"?>
<!DOCTYPE svg PUBLIC "-//W3C//DTD SVG 20010904//EN"
 "http://www.w3.org/TR/2001/REC-SVG-20010904/DTD/svg10.dtd">
<svg version="1.0" xmlns="http://www.w3.org/2000/svg"
 width="264.282096pt" height="115.378771pt" viewBox="0 0 264.282096 115.378771"
 preserveAspectRatio="xMidYMid meet">
<metadata>
Created by potrace 1.12, written by Peter Selinger 2001-2015
</metadata>
<g transform="translate(-37.592034,141.936363) scale(0.100000,-0.100000)"
fill="#000000" stroke="none">
<path d="M2939 1380 c-11 -38 -39 -75 -39 -53 0 9 -18 10 -52 4 -5 0 -8 -7 -8
-15 0 -8 -5 -16 -12 -18 -14 -5 -29 -119 -17 -133 5 -5 9 -18 9 -28 0 -16 -3
-17 -14 -8 -8 6 -18 11 -22 10 -23 -4 -34 3 -34 19 0 28 -11 34 -31 16 -16
-14 -22 -14 -48 -3 -16 7 -35 24 -42 36 -13 25 -24 29 -34 13 -9 -15 -45 -12
-51 5 -4 8 -10 15 -15 15 -13 0 -11 -34 3 -48 9 -9 9 -12 1 -12 -7 0 -33 25
-59 55 -26 29 -50 53 -53 52 -3 -1 -22 10 -41 24 -42 31 -70 42 -70 28 0 -6
-10 -9 -22 -7 -22 3 -23 0 -20 -53 2 -31 -3 -82 -12 -115 -8 -32 -16 -80 -17
-106 -3 -45 -3 -46 -23 -32 -12 8 -21 20 -21 27 0 6 -9 13 -19 15 -40 8 -63
44 -61 97 1 56 -14 104 -44 137 -12 12 -21 30 -21 39 0 29 -22 34 -42 9 -12
-15 -16 -30 -12 -44 11 -35 6 -80 -10 -92 -9 -6 -16 -16 -16 -22 0 -8 -8 -9
-25 -2 -14 5 -25 8 -25 5 0 -2 -15 2 -33 10 -37 15 -61 7 -52 -17 4 -10 -3
-24 -16 -37 -21 -19 -23 -20 -38 -3 -19 21 -52 23 -59 2 -4 -12 -3 -13 10 -3
16 14 28 8 28 -14 0 -18 -51 -17 -76 2 -10 8 -27 15 -37 15 -9 0 -26 6 -37 12
-16 11 -22 9 -34 -7 -13 -18 -15 -16 -37 26 -13 24 -22 47 -21 51 1 4 -8 13
-21 19 -12 7 -24 16 -27 20 -8 12 -48 -1 -54 -18 -4 -9 -2 -21 2 -27 13 -16
11 -76 -2 -76 -25 0 -38 -17 -29 -35 6 -10 7 -35 2 -58 -4 -22 -3 -52 2 -65 6
-15 5 -21 -1 -17 -13 8 -13 -45 0 -65 6 -9 5 -19 -2 -28 -7 -7 -12 -57 -12
-118 -1 -101 -2 -107 -26 -125 -14 -10 -31 -24 -37 -29 -7 -6 -13 -29 -13 -51
l0 -39 -25 16 c-23 15 -25 15 -32 -1 -9 -25 37 -172 49 -159 4 3 19 -1 35 -9
29 -15 176 -31 168 -18 -2 4 2 8 10 8 8 0 12 -3 10 -7 -2 -3 11 -4 29 -2 18 2
49 -1 68 -6 23 -6 41 -6 53 0 13 8 16 7 11 -1 -4 -6 0 -11 9 -11 9 0 13 5 9
11 -4 8 -1 8 12 1 28 -15 164 34 146 53 -4 4 3 5 16 2 12 -3 22 -1 22 5 0 5 5
6 10 3 6 -3 10 -1 10 5 0 6 4 8 10 5 5 -3 19 5 31 19 12 14 26 23 31 20 14 -9
9 -22 -9 -27 -11 -3 -7 -5 10 -6 27 -1 28 1 23 31 -6 29 -5 31 6 14 7 -10 21
-28 30 -40 17 -20 17 -20 10 -1 -5 11 -16 37 -25 58 -22 47 -14 63 56 117 107
82 113 100 68 195 -35 73 -36 76 -16 69 17 -7 55 50 55 83 0 36 17 35 24 -1 4
-18 18 -56 31 -85 14 -28 25 -61 25 -74 0 -12 -2 -88 -3 -170 -2 -81 0 -147 4
-147 7 0 20 -30 25 -57 8 -45 42 -97 75 -114 55 -28 158 -41 216 -29 48 11
113 52 113 72 0 23 94 167 117 179 39 21 83 83 92 132 7 40 61 126 61 98 0 -6
6 -11 14 -11 22 0 24 84 4 148 -11 38 -15 75 -12 121 3 36 6 89 8 116 2 28 10
82 19 120 21 89 21 106 0 144 -25 44 -50 40 -64 -9z m-46 -104 c0 -21 -7 -42
-14 -47 -12 -8 -12 -10 0 -18 9 -6 3 -8 -20 -6 -29 2 -34 6 -31 26 1 13 3 31
4 39 2 19 38 52 52 47 5 -2 10 -20 9 -41z m-515 -66 c10 0 42 -25 73 -55 31
-29 60 -51 64 -47 5 4 5 2 2 -4 -4 -7 0 -17 8 -24 8 -7 15 -9 15 -4 0 5 6 -2
13 -16 8 -16 21 -25 36 -25 15 0 28 -9 34 -23 6 -12 14 -22 19 -22 4 0 8 -6 8
-14 0 -21 27 -27 45 -10 30 30 35 8 5 -24 -30 -33 -33 -65 -4 -41 11 9 18 9
26 1 15 -15 55 -15 64 -1 4 7 7 24 8 38 1 20 7 27 33 32 18 3 35 4 38 1 12
-12 3 -58 -17 -89 -18 -26 -28 -32 -43 -27 -11 4 -40 7 -64 6 -25 -1 -51 4
-58 10 -19 16 -30 1 -12 -17 14 -14 26 -16 89 -14 14 1 34 -1 45 -5 13 -4 29
2 44 14 20 18 24 30 25 83 l1 62 -31 3 c-19 2 -36 -3 -44 -12 -13 -16 -40 -22
-40 -8 1 16 28 42 44 42 23 0 56 18 56 31 0 6 -8 6 -21 -2 -12 -6 -30 -9 -40
-6 -13 4 -26 -4 -40 -25 -20 -28 -22 -28 -40 -12 -18 16 -19 16 -28 -7 -9 -22
-10 -20 -10 15 -1 27 3 37 12 33 12 -5 40 17 31 25 -4 5 14 8 49 9 9 0 17 7
17 15 0 8 -3 13 -7 13 -20 -3 -43 2 -43 9 0 5 14 7 30 4 22 -3 30 -10 30 -24
0 -20 0 -20 35 1 23 13 35 16 35 8 0 -9 2 -9 8 0 15 24 28 -3 41 -84 13 -78
12 -83 -7 -103 -15 -16 -18 -28 -13 -44 9 -22 -3 -59 -27 -88 -9 -10 -11 -18
-6 -18 5 0 4 -4 -3 -8 -16 -10 -21 -48 -5 -44 6 1 18 3 25 5 6 1 12 -6 11 -15
0 -10 -1 -34 -2 -52 -2 -29 -15 -48 -77 -110 -41 -42 -77 -76 -79 -76 -3 0 -5
20 -4 45 0 25 4 45 9 45 5 0 9 5 9 11 0 6 7 18 16 27 14 13 14 17 2 26 -10 8
-12 22 -7 51 8 48 -3 65 -27 41 -13 -13 -19 -14 -24 -5 -5 6 -15 9 -25 6 -9
-4 -14 -3 -10 3 12 20 -17 9 -36 -12 -16 -20 -18 -20 -19 -5 0 29 -18 19 -30
-18 -6 -19 -15 -35 -20 -35 -10 0 -20 25 -20 51 0 22 11 24 28 7 8 -8 12 -9
12 -1 0 6 -12 21 -27 32 -16 11 -22 21 -15 21 6 0 14 -1 15 -2 2 -2 11 3 19
10 13 10 17 8 28 -18 7 -17 17 -33 22 -36 15 -9 3 70 -14 95 -11 15 -14 36
-11 66 4 35 1 48 -16 66 -25 27 -29 25 -39 -32 -5 -24 -17 -61 -26 -82 -10
-20 -16 -48 -14 -61 5 -23 3 -23 -21 -13 -14 6 -31 14 -37 19 -18 13 -52 -3
-59 -29 -5 -20 -8 -23 -20 -13 -8 7 -15 19 -15 26 0 30 -20 12 -21 -18 0 -18
-2 -49 -3 -68 -1 -19 2 -40 6 -47 6 -7 3 -24 -7 -43 -9 -17 -13 -35 -10 -40
10 -16 35 -12 35 5 0 8 5 15 10 15 6 0 8 -10 6 -22 -12 -53 -10 -98 4 -98 5 0
9 20 8 45 -2 34 2 48 17 59 19 14 20 12 26 -35 11 -82 17 -89 44 -55 l24 30 6
-27 c8 -32 15 -33 43 -7 28 27 32 25 32 -10 0 -37 12 -38 39 -4 l21 27 1 -24
c1 -13 2 -28 4 -34 1 -5 3 -14 3 -19 3 -16 52 56 52 76 0 10 5 18 10 18 32 0
-18 -97 -55 -106 -14 -4 -33 1 -47 10 -12 9 -36 16 -53 16 -16 1 -43 7 -60 14
-21 9 -38 10 -58 3 -19 -6 -32 -5 -42 3 -9 7 -15 8 -15 2 0 -22 30 -34 69 -27
26 4 49 2 68 -8 15 -8 33 -12 40 -10 6 2 28 -5 49 -16 27 -15 42 -18 56 -10
21 11 22 6 8 -22 -6 -10 -17 -19 -24 -19 -8 0 -19 -7 -26 -15 -16 -20 -127
-14 -200 11 -54 19 -56 21 -92 95 -35 72 -37 80 -39 190 -3 170 -2 182 17 175
12 -5 15 -2 9 11 -18 45 -19 57 -2 50 21 -8 22 -10 -7 54 -13 30 -27 69 -31
88 -7 31 -5 33 14 28 19 -5 21 -1 21 49 0 30 -5 63 -12 74 -15 24 -1 41 15 19
7 -9 28 -24 47 -34 36 -18 80 -54 80 -65 0 -3 -21 -6 -47 -6 l-48 1 3 -38 c5
-58 37 -125 64 -132 59 -13 128 20 128 61 0 12 -14 34 -31 48 -17 14 -26 26
-20 26 14 0 3 29 -23 60 -12 14 2 2 31 -27 55 -57 63 -62 63 -37 0 8 -4 12
-10 9 -5 -3 -10 0 -10 7 0 7 -29 44 -63 81 -50 54 -67 66 -83 61 -10 -4 -22
-11 -25 -16 -3 -5 -15 -5 -26 -1 -19 8 -19 10 -4 62 11 36 17 47 19 33 2 -13
11 -22 20 -22z m-854 -50 c7 -24 6 -24 -8 -6 -9 11 -16 29 -16 40 1 17 2 18 9
6 5 -8 12 -26 15 -40z m1114 -37 c6 -20 10 -38 8 -40 -5 -5 -66 94 -66 108 0
24 47 -31 58 -68z m249 50 c4 -11 -26 -27 -35 -19 -2 3 -2 12 2 21 6 18 27 16
33 -2z m-931 -60 c-10 -26 -18 -8 -9 23 5 21 8 24 11 11 2 -10 1 -25 -2 -34z
m628 6 c33 -50 29 -63 -6 -17 -34 46 -41 58 -30 58 5 0 22 -18 36 -41z m-704
13 c0 -21 -39 -66 -49 -57 -3 4 4 15 17 25 12 10 22 25 22 34 0 9 2 16 5 16 3
0 5 -8 5 -18z m-192 -18 c18 -8 32 -18 32 -20 0 -3 -4 -2 -10 1 -5 3 -10 -3
-10 -14 0 -30 -12 -26 -38 14 -25 39 -20 42 26 19z m1040 5 c-2 -6 -7 -10 -11
-10 -4 1 -14 1 -22 1 -8 0 -15 5 -15 10 0 6 12 10 26 10 14 0 24 -5 22 -11z
m-1089 -56 c20 -39 88 -113 103 -113 5 0 7 8 3 19 -4 15 1 19 31 24 20 3 43
14 52 25 28 31 48 33 61 6 12 -28 26 -31 35 -8 10 26 7 34 -11 33 -11 0 -13
-3 -5 -6 6 -2 12 -9 12 -15 0 -6 -6 -6 -15 2 -25 21 -17 37 18 36 17 0 39 2
47 4 8 3 19 -5 25 -17 5 -13 13 -23 17 -23 5 0 8 -9 8 -20 0 -11 5 -20 11 -20
6 0 8 -8 4 -19 -4 -12 1 -26 13 -38 10 -10 25 -34 32 -53 7 -19 19 -42 25 -50
24 -30 45 -84 45 -115 0 -35 -13 -55 -51 -79 -25 -16 -28 -16 -55 7 -44 36
-104 60 -159 65 -41 3 -56 -1 -87 -22 -22 -15 -40 -21 -44 -15 -3 6 -10 6 -17
1 -7 -5 -22 -8 -34 -6 -12 2 -29 -4 -38 -13 -14 -14 -18 -14 -26 -2 -6 10 -9
4 -9 -21 l0 -34 -28 33 -27 33 -29 -27 c-21 -19 -37 -25 -60 -23 -17 2 -32 0
-33 -4 -2 -5 -1 -8 2 -8 3 1 12 -6 21 -14 8 -8 20 -13 27 -10 7 2 22 -16 36
-46 13 -27 27 -47 32 -44 5 3 9 29 9 57 l1 52 25 -48 c28 -54 44 -53 44 1 l1
37 17 -33 c21 -38 32 -33 33 17 l1 36 11 -27 c15 -38 27 -35 27 7 0 47 11 44
33 -10 23 -55 37 -58 38 -7 l1 37 13 -30 13 -30 11 28 c6 16 11 36 12 45 0 14
2 13 9 -3 5 -11 11 -33 15 -48 8 -39 25 -23 49 45 11 29 20 55 22 57 1 1 21
-7 42 -19 l40 -23 -20 -39 c-15 -29 -23 -36 -29 -26 -6 9 -9 6 -10 -12 -1 -43
-7 -62 -23 -78 -12 -13 -18 -13 -30 -2 -11 8 -16 9 -16 1 0 -6 5 -11 10 -11 6
0 10 -7 10 -15 0 -9 -14 -17 -37 -21 -21 -3 -54 -15 -73 -25 -68 -35 -103 -38
-267 -23 -42 4 -84 2 -102 -4 -52 -18 -140 18 -167 69 -19 38 -12 63 17 56 14
-4 19 -1 16 7 -3 7 -2 19 3 26 5 9 15 1 34 -26 27 -40 27 -56 1 -34 -9 7 -18
11 -20 8 -7 -7 54 -50 66 -46 5 2 -1 19 -14 38 -57 84 -55 90 7 25 36 -38 66
-67 66 -63 0 9 -81 138 -87 138 -3 0 -2 -8 1 -17 5 -13 0 -11 -18 6 -15 14
-26 30 -26 38 0 21 17 15 23 -8 3 -12 10 -18 15 -15 6 3 33 -23 61 -59 28 -36
53 -65 55 -65 3 0 -7 24 -21 52 -16 33 -42 66 -70 88 -43 32 -44 35 -24 44 11
5 24 18 27 30 l7 21 10 -22 c5 -12 16 -24 24 -28 13 -4 14 1 9 31 -4 19 -10
42 -13 50 -3 8 0 14 5 14 7 0 8 10 2 30 -5 17 -6 31 -2 31 13 3 48 6 97 7 39
2 63 10 104 37 l54 36 -8 -53 c-14 -88 -12 -132 6 -136 9 -1 20 8 27 22 7 17
17 24 27 20 8 -3 15 -3 15 1 0 15 -23 101 -30 110 -4 6 -10 26 -14 47 -4 20
-14 39 -22 42 -37 14 -77 5 -110 -24 -19 -16 -40 -27 -46 -25 -19 8 -37 52
-50 122 -9 49 -9 65 1 77 14 16 36 12 26 -5 -12 -18 28 -23 41 -4 12 17 15 16
31 -14 28 -48 63 -40 38 10 -16 29 -18 39 -10 39 2 0 13 -17 24 -37z m141 2
c-7 -8 -17 -15 -23 -15 -5 0 -2 9 8 20 21 23 35 19 15 -5z m387 -79 c-1 -30
-6 -51 -11 -48 -5 3 -6 -3 -3 -14 7 -19 7 -19 -8 0 -14 19 -13 42 6 94 14 36
19 26 16 -32z m235 12 c-8 -46 40 -75 71 -43 13 12 17 12 31 -4 22 -24 20 -40
-7 -52 -17 -8 -35 -8 -63 0 -40 11 -54 30 -68 94 -6 25 -4 28 16 25 15 -2 22
-9 20 -20z m-927 -100 c-6 -16 -4 -20 8 -15 9 3 21 -1 27 -9 7 -8 23 -14 35
-14 22 0 42 -25 27 -34 -4 -2 -30 -4 -58 -3 -51 0 -52 1 -63 37 -14 48 -14 53
4 46 8 -3 15 -1 15 4 0 6 3 10 6 10 3 0 2 -10 -1 -22z m1469 -143 c-9 -14 -18
-25 -19 -25 -6 0 2 43 10 64 7 16 9 16 17 2 6 -10 3 -24 -8 -41z m-481 -5 c7
-1 22 -9 35 -19 19 -17 21 -23 11 -48 l-11 -28 -15 43 c-17 49 -28 47 -44 -8
-13 -44 -24 -44 -34 0 -8 35 11 74 32 66 8 -3 20 -6 26 -6z m10 -70 c3 -11 0
-18 -7 -17 -6 1 -14 -17 -17 -43 -5 -35 -6 -38 -7 -14 -2 40 8 94 18 94 4 0
10 -9 13 -20z m183 -12 c-14 -33 -36 -50 -36 -28 0 10 39 59 47 60 1 0 -4 -14
-11 -32z m84 -8 c0 -11 -11 -32 -25 -47 l-24 -28 -1 25 c-1 14 -3 39 -6 57 -4
31 -3 32 26 21 19 -6 30 -17 30 -28z m-883 -5 c-12 -41 -22 -44 -31 -10 -8 31
-1 45 24 45 16 0 17 -4 7 -35z m68 25 c7 -12 -14 -94 -22 -86 -3 3 -9 26 -13
51 -6 39 -4 45 11 45 10 0 21 -4 24 -10z m685 -35 c0 -16 -6 -25 -15 -25 -18
0 -18 5 -5 31 14 26 20 24 20 -6z m-813 -42 c-4 -17 -4 -17 -12 0 -4 9 -4 25
0 35 8 16 8 16 12 0 3 -10 3 -26 0 -35z m-105 1 c-3 -24 -8 -32 -14 -26 -11
11 -3 62 10 62 4 0 6 -16 4 -36z m975 -1 c-3 -3 -11 -2 -17 2 -8 5 -7 11 2 22
12 15 13 14 16 -1 2 -10 1 -20 -1 -23z m-1097 -45 l-1 -53 -20 38 c-16 30 -18
42 -8 53 21 25 29 15 29 -38z m1131 1 c-39 -36 -41 -41 -26 -52 12 -9 15 -20
10 -40 -11 -44 -22 -40 -29 11 -6 46 -6 48 36 84 58 50 64 48 9 -3z m-1431
-44 c0 -8 -4 -15 -10 -15 -5 0 -10 7 -10 15 0 8 5 15 10 15 6 0 10 -7 10 -15z"/>
<path d="M1753 933 c-39 -15 35 -97 90 -100 18 -1 50 -6 71 -12 22 -5 44 -8
48 -5 16 10 7 24 -15 24 -13 0 -32 6 -42 14 -19 13 -17 15 20 22 52 9 90 33
76 47 -8 8 -22 7 -48 -3 -47 -16 -86 -15 -142 5 -24 8 -44 15 -45 14 0 0 -7
-3 -13 -6z"/>
<path d="M495 1327 c1 -18 12 -52 24 -75 11 -23 21 -50 21 -61 0 -33 -40 -124
-61 -139 -16 -11 -19 -21 -15 -48 6 -32 -6 -46 -19 -24 -4 6 -10 8 -15 5 -4
-3 -7 3 -6 12 0 10 -7 19 -16 21 -12 2 -19 -7 -26 -31 -14 -50 -4 -83 38 -127
23 -24 42 -57 50 -87 8 -26 19 -52 27 -56 7 -4 13 -16 13 -25 0 -10 14 -32 30
-50 17 -18 30 -36 30 -39 0 -3 18 -26 40 -51 63 -70 254 -156 275 -123 3 5 30
15 61 22 31 7 71 24 89 38 114 89 169 139 196 177 16 24 34 44 40 44 6 0 16
16 24 34 8 19 22 39 30 44 24 13 25 107 1 157 -11 22 -20 54 -20 72 -1 18 -5
35 -9 39 -4 4 -7 15 -7 23 0 9 -11 33 -25 53 -26 38 -34 101 -15 113 16 10 12
85 -4 91 -21 8 -56 -14 -56 -36 0 -10 -4 -22 -10 -25 -5 -3 -10 -16 -10 -29 0
-47 -18 -46 -108 10 -68 41 -98 54 -138 57 -28 2 -56 7 -62 11 -7 4 -12 0 -12
-10 0 -15 -3 -15 -20 4 -27 29 -34 28 -26 -3 4 -14 5 -25 4 -25 -2 0 -18 4
-35 9 -27 8 -38 5 -65 -12 -17 -12 -31 -26 -31 -32 2 -20 -18 -45 -35 -45 -9
0 -44 34 -77 75 -33 41 -63 75 -67 75 -3 0 -5 -15 -3 -33z m235 -73 c0 -10 -6
-14 -15 -10 -8 3 -15 0 -15 -6 0 -6 -3 -8 -6 -5 -8 8 14 37 27 37 5 0 9 -7 9
-16z m107 -116 c2 -24 7 -50 10 -58 4 -8 7 -34 8 -56 3 -47 10 -64 29 -64 8 0
15 17 18 43 6 52 46 118 70 115 9 -2 30 9 46 25 27 26 31 27 55 14 24 -12 25
-16 12 -27 -12 -10 -12 -14 -1 -25 11 -11 20 -11 52 0 60 21 97 -10 58 -49
-12 -12 -12 -16 -2 -16 9 -1 7 -5 -4 -14 -10 -7 -18 -17 -18 -22 1 -14 71 -86
77 -80 3 3 0 12 -7 21 -19 22 -7 18 25 -9 27 -23 27 -24 10 -50 -13 -19 -16
-38 -12 -67 3 -22 2 -52 -3 -67 -9 -31 -95 -124 -155 -168 -21 -16 -54 -44
-73 -61 -18 -18 -52 -37 -75 -43 -23 -6 -58 -19 -77 -29 -33 -17 -37 -17 -70
-2 -19 9 -51 26 -70 37 -19 12 -46 25 -60 29 -25 8 -52 30 -49 41 0 3 -10 18
-22 32 -39 44 -76 97 -98 141 -26 49 -39 131 -22 131 7 0 11 22 11 60 0 58 1
60 21 50 27 -15 64 9 86 55 9 19 23 35 31 35 7 0 21 18 29 40 14 34 20 40 42
38 15 -2 26 2 27 10 1 6 2 17 3 22 2 18 29 10 49 -15 25 -31 36 -32 28 -1 -5
22 2 41 12 31 2 -2 6 -24 9 -47z m85 -39 c-18 -20 -27 -26 -17 -9 3 6 1 10 -6
10 -9 0 -9 3 1 14 6 8 18 12 25 10 11 -5 10 -9 -3 -25z m-336 -66 c-15 -31
-29 -54 -31 -51 -3 3 6 29 20 59 14 30 25 61 26 69 1 11 3 10 6 -2 2 -10 -7
-43 -21 -75z m704 -75 c0 -19 -2 -20 -10 -8 -13 19 -13 30 0 30 6 0 10 -10 10
-22z m-863 -25 c19 -37 20 -63 2 -63 -10 0 -39 64 -39 86 0 26 18 14 37 -23z"/>
<path d="M723 1053 c-22 -4 -73 -56 -73 -75 0 -5 -12 -9 -27 -8 -43 3 -50 1
-67 -16 -16 -15 -21 -79 -10 -120 5 -20 8 -20 44 -8 22 8 45 11 53 8 8 -3 20
2 27 11 7 8 25 15 39 15 18 0 39 12 60 34 28 29 33 40 28 65 -4 18 -2 31 3 31
6 0 10 -10 10 -22 0 -12 3 -19 6 -15 3 3 1 29 -6 56 -13 54 -19 57 -87 44z
m-16 -54 c-6 -24 11 -69 26 -69 6 0 19 7 29 17 15 14 18 14 18 1 0 -19 -35
-51 -58 -53 -10 0 -34 -8 -53 -17 -19 -9 -52 -18 -74 -20 -37 -3 -40 -1 -43
25 -5 39 14 57 59 57 34 0 42 5 64 40 28 44 40 51 32 19z"/>
<path d="M978 1038 c-9 -7 -18 -25 -22 -39 -4 -20 -1 -29 17 -38 13 -7 34 -30
48 -52 13 -22 34 -42 47 -46 28 -7 80 3 99 18 14 13 18 59 4 59 -5 0 -34 25
-65 55 -58 57 -94 69 -128 43z m181 -134 c1 -15 -22 -24 -57 -24 -33 0 -45 8
-61 37 -15 30 -15 51 1 35 17 -17 48 -15 48 4 0 12 8 9 34 -13 19 -15 35 -33
35 -39z"/>
<path d="M864 905 c-7 -19 -14 -39 -14 -44 0 -5 -10 -17 -21 -25 -14 -9 -19
-21 -15 -31 5 -14 9 -15 20 -6 11 9 15 9 18 -1 4 -10 8 -10 22 1 15 12 19 11
33 -8 19 -29 37 -9 21 23 -6 12 -15 29 -20 38 -4 10 -8 34 -8 53 0 45 -17 45
-36 0z"/>
<path d="M915 743 c-27 -9 -64 -13 -115 -10 -41 3 -96 0 -122 -5 -40 -10 -47
-15 -51 -41 -3 -20 3 -37 19 -56 22 -26 25 -27 76 -18 100 17 128 13 210 -29
43 -23 84 -18 106 14 21 30 34 82 21 82 -5 0 -9 6 -9 13 0 18 -32 47 -59 52
-11 2 -24 6 -29 8 -4 3 -25 -2 -47 -10z m20 -33 c-3 -5 -13 -10 -21 -10 -8 0
-12 5 -9 10 3 6 13 10 21 10 8 0 12 -4 9 -10z"/>
</g>
</svg>
