<?xml version="1.0" standalone="no"?>
<!DOCTYPE svg PUBLIC "-//W3C//DTD SVG 20010904//EN"
 "http://www.w3.org/TR/2001/REC-SVG-20010904/DTD/svg10.dtd">
<svg version="1.0" xmlns="http://www.w3.org/2000/svg"
 width="301.000000pt" height="140.000000pt" viewBox="0 0 301.000000 140.000000"
 preserveAspectRatio="xMidYMid meet">
<metadata>
Created by potrace 1.16, written by Peter Selinger 2001-2019
</metadata>
<g transform="translate(0.000000,140.000000) scale(0.100000,-0.100000)"
fill="#000000" stroke="none">
<path d="M1019 1227 c-33 -32 -40 -34 -83 -30 -39 5 -52 1 -87 -22 -22 -16
-43 -33 -47 -39 -10 -16 -11 -165 -1 -172 5 -3 9 -15 9 -27 0 -44 13 -51 71
-37 95 23 124 18 172 -31 80 -79 94 -83 173 -43 72 36 101 64 118 113 20 58
14 111 -16 133 -13 10 -27 22 -33 26 -12 11 -89 99 -112 130 -14 18 -31 24
-73 28 -52 5 -57 3 -91 -29z m130 -73 c39 -28 117 -106 96 -97 -11 5 -27 9
-35 8 -8 -1 -25 -3 -37 -3 -13 -1 -32 -19 -51 -46 -20 -31 -32 -42 -39 -35 -6
6 -17 12 -24 13 -8 1 -32 8 -54 15 -35 11 -46 10 -92 -8 -56 -22 -61 -20 -67
29 -3 27 1 35 28 51 19 11 49 19 77 19 31 0 55 7 72 20 14 11 30 20 36 20 6 0
11 7 11 15 0 20 49 20 79 -1z"/>
<path d="M1478 1189 c-62 -67 -77 -113 -54 -172 9 -24 27 -49 39 -56 12 -6 40
-22 62 -36 22 -14 60 -34 85 -45 25 -11 56 -26 70 -35 105 -63 179 -73 262
-37 57 25 70 51 87 173 11 75 10 90 -6 139 -19 58 -45 79 -101 83 -24 2 -27
-1 -27 -32 l0 -33 -45 4 c-26 3 -68 19 -100 38 -73 43 -123 60 -178 60 -42 0
-50 -4 -94 -51z m220 -56 c63 -31 88 -38 137 -38 33 0 72 3 87 8 25 7 29 3 48
-33 22 -43 19 -70 -6 -50 -17 15 -133 20 -159 7 -40 -19 -75 -60 -75 -89 0
-15 -2 -28 -5 -28 -16 0 -128 48 -168 73 -42 25 -77 69 -77 95 0 4 14 27 31
50 27 37 35 42 71 42 25 0 67 -13 116 -37z"/>
<path d="M425 1177 c-37 -13 -133 -110 -153 -157 -20 -44 -19 -187 1 -250 8
-25 22 -72 31 -105 18 -62 41 -127 57 -157 5 -10 9 -20 9 -22 0 -2 -30 -14
-67 -27 -38 -12 -88 -33 -112 -47 -24 -13 -64 -27 -89 -31 -47 -6 -69 -27 -59
-55 11 -28 121 -15 217 26 111 48 140 56 140 42 0 -8 4 -22 9 -32 5 -9 14 -35
20 -57 22 -74 63 -165 75 -165 39 1 52 38 75 211 17 126 21 140 50 176 20 25
47 45 71 53 36 12 42 11 60 -5 11 -10 20 -29 20 -42 0 -12 5 -23 10 -23 6 0
10 -7 10 -15 0 -8 18 -56 40 -107 66 -152 140 -196 213 -128 18 16 35 30 40
30 4 0 7 4 7 9 0 5 13 23 30 39 17 18 28 37 24 45 -3 8 2 17 10 20 9 4 16 16
16 28 0 21 1 20 25 -7 14 -16 33 -46 42 -67 18 -39 57 -72 73 -62 6 3 10 -1
10 -9 0 -9 6 -16 14 -16 7 0 44 -16 82 -36 64 -33 73 -35 127 -29 33 3 69 10
80 15 28 12 128 105 131 122 1 7 7 22 13 32 10 19 11 19 17 -2 8 -25 24 -31
93 -36 41 -4 57 -1 77 15 15 11 26 26 26 34 0 7 25 46 56 87 30 40 58 85 61
100 5 26 29 56 37 47 10 -10 71 -195 81 -242 3 -15 15 -37 26 -48 19 -19 23
-19 36 -6 19 19 33 82 24 114 -8 30 5 181 19 218 12 31 20 28 41 -17 31 -63
38 -83 54 -148 31 -127 47 -170 65 -170 24 0 41 45 45 120 2 36 13 106 23 155
17 82 20 87 26 55 22 -113 41 -184 53 -195 7 -8 13 -19 13 -26 0 -19 39 -96
55 -109 28 -24 107 29 168 112 15 20 27 41 27 46 0 5 7 16 17 23 9 8 22 28 30
44 7 17 19 38 25 47 10 14 9 21 -6 37 -30 33 -54 26 -84 -24 -54 -91 -123
-185 -132 -180 -14 8 -68 167 -75 221 -12 95 -15 102 -51 123 -29 17 -39 19
-57 10 -36 -19 -66 -57 -78 -99 -13 -44 -24 -51 -34 -19 -11 33 -60 77 -101
88 -33 9 -43 8 -62 -7 -27 -20 -48 -55 -58 -97 l-7 -30 -20 47 c-21 48 -55 73
-87 63 -25 -8 -60 -57 -105 -148 -21 -43 -50 -95 -66 -116 -25 -35 -30 -38
-61 -32 -31 6 -34 11 -55 81 -12 41 -22 94 -22 117 -1 34 -6 46 -26 59 -24 16
-26 15 -45 -7 -21 -26 -22 -34 -20 -156 2 -102 -15 -141 -78 -183 -55 -36 -98
-39 -178 -9 -108 41 -195 149 -235 293 -25 91 -46 114 -77 83 -15 -16 -23 -50
-42 -186 -10 -78 -25 -108 -73 -153 -32 -31 -47 -34 -65 -16 -7 7 -12 8 -12 3
0 -6 -13 18 -29 53 -15 35 -37 75 -48 90 -11 15 -24 39 -28 52 -4 14 -13 33
-20 43 -7 10 -11 27 -8 38 3 10 1 20 -3 20 -35 5 -53 8 -78 14 -67 14 -86 9
-128 -37 -43 -46 -42 -39 5 57 42 86 64 219 42 249 -8 11 -15 27 -15 37 0 9
-7 22 -15 29 -8 7 -15 21 -15 31 0 11 -4 19 -8 19 -4 0 -24 22 -45 50 -47 63
-100 91 -142 77z m42 -108 c47 -18 123 -104 115 -131 -1 -5 3 -8 8 -8 19 0 10
-68 -20 -161 -35 -106 -71 -177 -109 -213 l-27 -26 -26 73 c-42 116 -80 247
-75 260 2 7 0 22 -4 34 -5 13 -4 25 2 28 5 4 7 10 4 15 -9 14 42 106 67 124
27 19 29 19 65 5z"/>
<path d="M1575 808 c-11 -6 -25 -18 -31 -26 -9 -13 -16 -12 -49 3 -36 18 -38
18 -51 0 -27 -37 -17 -79 31 -131 44 -46 45 -47 65 -29 11 10 20 23 20 30 0 7
9 20 19 29 22 20 55 112 46 126 -8 13 -25 12 -50 -2z"/>
</g>
</svg>
