<?xml version="1.0" standalone="no"?>
<!DOCTYPE svg PUBLIC "-//W3C//DTD SVG 20010904//EN"
 "http://www.w3.org/TR/2001/REC-SVG-20010904/DTD/svg10.dtd">
<svg version="1.0" xmlns="http://www.w3.org/2000/svg"
 width="540.081703pt" height="255.725833pt" viewBox="0 0 540.081703 255.725833"
 preserveAspectRatio="xMidYMid meet">
<metadata>
Created by potrace 1.12, written by Peter Selinger 2001-2015
</metadata>
<g transform="translate(-3.918297,266.887362) scale(0.100000,-0.100000)"
fill="#000000" stroke="none">
<path d="M2420 2648 c-8 -13 -26 -44 -40 -70 -14 -27 -36 -55 -49 -64 -22 -16
-25 -15 -60 4 -22 13 -46 19 -59 15 -27 -7 -27 -7 3 -47 l25 -33 -50 -34 c-54
-36 -68 -64 -51 -97 19 -35 46 -36 92 -3 45 33 62 32 53 -3 -3 -12 0 -34 5
-49 9 -22 17 -27 43 -27 30 0 33 3 35 32 2 18 7 44 12 58 5 14 12 38 16 53 l6
28 35 -30 c34 -30 74 -37 81 -14 2 6 -17 30 -42 54 -25 23 -45 47 -45 52 0 5
16 36 36 69 35 58 39 88 10 88 -8 0 -18 9 -21 20 -8 26 -17 25 -35 -2z"/>
<path d="M5297 2551 c-20 -22 -43 -51 -52 -65 -25 -38 -83 -36 -128 4 -34 29
-58 41 -110 54 -26 6 -28 5 -21 -16 8 -27 30 -45 64 -55 13 -3 38 -19 55 -34
36 -34 31 -41 -57 -80 -71 -31 -89 -50 -72 -76 22 -35 56 -37 118 -8 31 15 60
24 64 21 3 -4 1 -30 -5 -59 -10 -47 -9 -54 8 -70 11 -10 32 -19 47 -20 24 -2
27 2 35 43 5 25 10 63 12 85 3 38 4 40 37 39 18 0 49 -8 68 -17 70 -31 80 -31
80 -1 0 30 -24 53 -57 54 -22 0 -93 37 -93 48 0 14 46 72 61 77 9 3 25 16 37
28 21 23 21 23 2 55 -26 42 -50 41 -93 -7z"/>
<path d="M2552 2234 c-33 -23 -31 -87 4 -119 41 -38 68 -30 84 24 23 82 -28
137 -88 95z"/>
<path d="M3352 2105 c-16 -20 -22 -50 -29 -133 -4 -59 -7 -120 -5 -137 l2 -30
-20 30 c-11 17 -20 35 -20 41 0 13 -60 69 -82 77 -10 4 -27 21 -37 39 -11 18
-32 50 -47 70 -26 35 -28 36 -81 32 -30 -2 -63 -8 -73 -14 -13 -7 -26 -7 -37
-1 -20 10 -88 5 -145 -10 -26 -7 -46 -22 -65 -49 -15 -22 -33 -40 -39 -40 -21
0 -86 -76 -115 -132 -31 -62 -44 -74 -37 -33 5 22 1 49 -17 140 -2 11 -4 23
-4 26 -1 4 -13 9 -28 12 -16 3 -37 8 -48 12 -15 4 -31 -2 -55 -24 -19 -17 -41
-31 -47 -31 -7 0 -13 -9 -13 -19 0 -11 -4 -23 -10 -26 -5 -3 -10 -20 -10 -38
2 -96 -10 -246 -21 -272 -13 -33 -4 -165 11 -165 4 0 6 -8 3 -19 -3 -10 3 -34
13 -52 19 -37 24 -70 70 -501 4 -44 2 -89 -6 -128 -13 -63 -5 -115 27 -165 7
-13 12 -46 10 -83 -2 -50 2 -65 18 -81 21 -20 180 -90 224 -98 14 -2 29 -10
33 -18 4 -7 19 -16 32 -19 14 -3 37 -17 51 -30 14 -13 42 -32 61 -41 47 -22
240 -47 329 -43 65 3 74 6 124 46 65 52 84 76 100 124 7 21 17 38 23 38 6 0 8
11 6 25 -3 14 -2 25 2 25 4 0 13 18 20 40 7 22 16 40 20 40 4 0 24 25 44 56
33 49 38 65 42 132 4 50 12 89 25 110 14 24 17 44 13 70 -3 20 -7 46 -8 57 -2
11 1 26 7 33 6 8 6 12 -2 12 -8 0 -9 6 -3 18 5 9 8 51 7 92 -2 60 2 80 17 99
10 13 18 32 18 42 0 10 4 20 9 23 5 4 3 27 -6 53 -8 27 -18 77 -23 112 -5 35
-13 67 -19 70 -6 4 -9 50 -8 118 2 98 0 113 -18 133 -15 17 -20 38 -22 101 -2
44 -8 89 -14 101 -8 15 -8 22 0 28 9 5 8 10 -4 20 -8 7 -15 23 -15 35 0 13 -7
25 -15 29 -8 3 -15 15 -15 26 0 11 -7 23 -15 26 -8 4 -15 13 -15 21 0 8 -4 12
-9 8 -5 -3 -12 -1 -16 5 -10 16 -22 12 -43 -15z m-232 -112 c10 -18 23 -39 30
-47 6 -9 9 -19 6 -24 -5 -9 51 -42 71 -42 18 0 117 -185 107 -201 -6 -10 -54
14 -54 27 0 7 -6 14 -14 17 -7 3 -16 19 -19 35 -4 21 -15 34 -37 43 -32 15
-37 24 -17 33 6 3 2 3 -10 0 -13 -3 -23 -1 -23 5 0 18 -94 74 -140 84 -25 5
-78 10 -117 12 -40 2 -76 6 -81 9 -10 6 -64 -43 -102 -92 -26 -34 -128 -117
-135 -110 -22 22 154 227 220 256 16 8 72 15 122 16 51 2 96 6 100 10 4 4 23
6 42 4 26 -2 37 -10 51 -35z m-643 -68 c2 -11 3 -45 3 -75 -5 -159 -4 -179 9
-194 23 -28 69 -16 142 36 13 9 60 26 103 37 44 12 98 30 121 41 56 27 170 28
224 1 22 -10 60 -24 85 -32 26 -7 48 -21 51 -30 3 -10 20 -35 36 -56 17 -21
34 -44 38 -51 11 -19 100 4 127 33 19 20 21 32 18 92 -3 37 -9 92 -14 122 -12
68 -13 101 -1 101 15 0 22 -31 31 -130 6 -59 17 -113 30 -143 17 -38 21 -64
19 -135 -2 -63 1 -95 13 -117 23 -46 56 -195 43 -195 -12 0 -43 37 -59 70 -9
19 -29 42 -44 51 -16 9 -40 40 -57 73 -16 32 -39 65 -50 75 -12 9 -20 22 -17
29 2 6 -3 12 -11 12 -8 0 -27 16 -41 35 -15 19 -35 35 -46 35 -10 0 -25 7 -34
15 -8 8 -20 15 -26 15 -6 0 -23 13 -38 28 -38 40 -128 66 -195 57 -29 -3 -71
-8 -94 -11 -41 -4 -77 -17 -133 -48 -36 -21 -131 -64 -155 -70 -24 -7 -85 -58
-85 -71 0 -16 -124 -125 -132 -117 -5 5 -15 42 -24 83 -11 56 -13 84 -5 114 6
22 13 97 17 168 l6 127 32 25 c40 32 107 32 113 0z m556 -257 c12 -6 43 -28
70 -50 27 -21 56 -38 64 -38 28 0 193 -196 193 -229 0 -4 27 -36 60 -71 104
-112 99 -96 96 -267 -3 -130 -6 -156 -24 -195 -15 -30 -21 -58 -18 -89 1 -24
-3 -59 -10 -77 -7 -18 -14 -36 -15 -40 -1 -4 -14 -26 -30 -49 -16 -23 -29 -48
-29 -56 0 -8 -8 -22 -19 -31 -10 -9 -21 -36 -23 -59 -6 -50 -63 -137 -121
-185 -43 -35 -42 -35 -167 -15 -14 2 -32 4 -40 5 -8 0 -19 4 -25 8 -5 5 -37 9
-70 11 -64 4 -92 16 -142 62 -17 16 -43 30 -57 30 -14 1 -26 5 -26 9 0 3 -33
19 -72 34 -40 15 -99 41 -130 57 -61 32 -61 32 -60 115 1 26 -7 56 -20 78 -16
28 -19 43 -13 77 4 23 7 72 6 108 l-1 66 40 -1 c37 -1 40 -3 46 -33 4 -19 12
-33 20 -33 21 0 17 -28 -7 -53 -17 -19 -18 -23 -5 -25 9 -2 16 -12 16 -22 0
-10 5 -20 11 -22 6 -2 15 -27 21 -56 9 -52 32 -92 53 -92 5 0 30 -13 55 -30
24 -16 58 -32 75 -36 16 -4 46 -20 65 -35 19 -16 40 -29 47 -29 7 0 13 -4 13
-9 0 -9 44 -29 75 -34 11 -1 26 -6 33 -11 7 -4 41 -8 77 -8 72 0 135 29 135
62 0 10 5 31 12 47 6 15 11 31 10 36 -1 4 5 7 13 7 8 0 15 7 15 15 0 8 5 15
10 15 6 0 10 8 10 18 0 10 12 22 30 29 17 6 30 17 30 25 0 10 -3 9 -10 -2 -5
-8 -10 -10 -10 -5 0 6 5 17 11 25 9 12 12 12 16 2 4 -10 14 -5 34 18 35 38 44
68 35 121 -4 22 -1 59 5 82 6 23 11 71 11 106 0 53 3 64 17 68 16 4 61 77 61
97 0 5 -35 64 -57 95 -7 10 -83 -21 -83 -34 0 -8 -5 -15 -11 -15 -14 0 -40
-66 -33 -84 3 -9 9 -16 13 -16 3 0 5 -33 5 -73 -2 -88 -18 -123 -76 -168 -24
-18 -66 -56 -95 -84 -41 -41 -57 -51 -76 -48 -14 3 -47 -6 -78 -20 -29 -14
-55 -25 -58 -23 -3 1 -17 7 -31 13 -14 6 -54 20 -90 33 -148 50 -152 53 -185
125 -13 27 -37 64 -54 82 -17 18 -31 40 -31 49 0 9 -11 41 -25 71 -24 49 -28
53 -53 47 -15 -4 -35 -13 -44 -21 -25 -22 -38 -7 -38 40 0 23 -9 71 -20 107
-11 36 -20 77 -20 93 0 28 33 100 43 91 4 -5 26 16 115 109 40 43 279 156 344
164 29 3 64 12 78 19 31 16 84 18 113 2z m287 -904 c0 -54 -2 -57 -57 -117
-32 -34 -63 -65 -70 -70 -6 -4 -33 -46 -58 -93 l-47 -86 -37 7 c-20 4 -38 11
-41 16 -3 5 -17 11 -30 13 -14 2 -26 5 -27 5 -2 1 -4 0 -6 -1 -1 -2 -25 14
-54 34 -28 21 -57 38 -65 38 -9 0 -27 9 -41 20 -14 11 -31 20 -39 20 -7 0 -20
9 -28 20 -8 12 -32 32 -52 47 -21 14 -35 29 -32 34 3 5 -2 9 -10 9 -20 0 -21
14 -2 29 10 8 16 9 21 1 3 -5 17 -10 31 -10 13 0 24 -5 24 -11 0 -6 7 -9 15
-5 8 3 18 -1 22 -9 5 -9 28 -16 54 -17 26 -2 53 -9 61 -16 8 -6 18 -9 21 -5 4
3 7 2 7 -4 0 -6 23 -13 50 -15 33 -2 50 1 50 8 0 15 43 31 104 40 44 6 57 15
135 90 47 46 89 84 94 84 4 0 7 -25 7 -56z"/>
<path d="M2624 1428 c-56 -14 -64 -40 -69 -218 -4 -132 -2 -166 10 -190 24
-47 63 -41 115 18 23 26 50 50 60 54 25 9 59 89 56 130 -5 49 -43 148 -67 174
-29 31 -67 43 -105 32z m50 -54 c22 -8 20 -25 -1 -18 -10 3 -6 -2 10 -11 15
-8 27 -19 27 -24 0 -15 -31 -71 -40 -71 -16 0 -23 -88 -10 -119 10 -24 9 -33
-5 -54 -16 -24 -43 -42 -52 -33 -2 2 -4 67 -4 144 0 115 3 145 16 166 18 26
31 31 59 20z"/>
<path d="M2896 1406 c3 -8 -4 -24 -16 -36 -19 -19 -21 -30 -17 -67 3 -25 9
-48 14 -52 5 -3 22 -23 37 -43 16 -21 34 -38 40 -38 7 0 18 -16 26 -35 7 -19
17 -32 22 -29 4 3 8 -2 8 -10 0 -8 7 -31 17 -50 13 -28 23 -36 54 -41 57 -10
92 2 130 43 60 65 69 90 61 172 -1 9 -27 28 -58 43 -30 15 -61 32 -67 37 -38
32 -107 80 -115 80 -6 0 -13 7 -16 16 -4 10 -14 14 -26 11 -11 -3 -20 -1 -20
4 0 5 -18 9 -40 9 -30 0 -38 -3 -34 -14z m99 -71 c22 -13 61 -34 87 -47 70
-34 76 -53 39 -117 -17 -28 -31 -58 -31 -66 0 -29 -20 -14 -44 34 -14 26 -47
68 -73 92 -64 57 -67 63 -48 99 18 35 18 35 70 5z"/>
<path d="M2835 1013 c-14 -21 -25 -43 -25 -50 0 -7 -4 -13 -8 -13 -11 0 -42
-66 -42 -88 0 -49 62 -57 88 -12 9 16 20 30 23 30 3 0 12 -15 20 -32 30 -70
79 -38 79 52 0 66 -14 106 -44 132 -34 28 -62 22 -91 -19z"/>
<path d="M5065 2046 c-9 -43 19 -106 46 -106 11 0 29 10 40 21 17 17 20 29 16
56 -8 47 -23 63 -63 63 -30 0 -34 -3 -39 -34z"/>
<path d="M200 2017 c0 -57 -18 -79 -66 -84 -26 -2 -46 -12 -62 -29 l-23 -26
21 -17 c77 -58 78 -59 70 -94 -4 -17 -19 -59 -33 -92 -28 -68 -26 -85 13 -85
22 0 30 7 44 43 10 23 22 49 27 57 5 8 14 25 21 38 6 12 14 22 18 22 3 0 17
-25 29 -55 24 -57 43 -69 61 -36 13 25 13 68 0 76 -22 13 -8 23 24 18 32 -5
34 -3 41 26 5 25 1 37 -20 64 -15 17 -39 39 -53 48 -20 11 -28 25 -30 50 -1
19 -5 53 -8 77 -5 40 -7 42 -40 42 -33 0 -34 -1 -34 -43z"/>
<path d="M835 2020 c-3 -5 -18 -10 -33 -10 -15 0 -49 -6 -77 -13 -45 -12 -51
-17 -57 -48 -16 -79 -22 -95 -46 -124 -15 -18 -43 -35 -69 -43 -31 -9 -47 -20
-53 -37 -5 -14 -14 -25 -21 -25 -7 0 -8 -12 -4 -32 7 -37 126 -156 184 -184
30 -15 32 -18 16 -26 -30 -18 -65 -51 -65 -63 0 -7 -9 -20 -20 -30 -11 -10
-20 -25 -20 -32 0 -15 -82 -103 -96 -103 -4 0 -22 -15 -40 -34 -31 -32 -33
-38 -38 -127 -3 -52 -11 -115 -17 -140 -11 -42 -10 -50 8 -75 21 -31 45 -112
37 -126 -3 -4 1 -11 10 -14 11 -4 14 -21 11 -79 -2 -55 1 -77 11 -86 8 -6 14
-18 14 -25 0 -8 6 -14 14 -14 9 0 12 -7 9 -20 -3 -11 0 -20 6 -20 6 0 11 -7
11 -15 0 -9 10 -19 22 -24 13 -5 23 -14 24 -22 0 -8 2 -22 2 -31 1 -11 10 -18
22 -18 11 0 20 -6 20 -13 0 -8 8 -22 19 -31 10 -9 21 -30 24 -45 5 -25 34 -46
60 -42 4 1 6 -4 5 -11 -2 -6 13 -15 33 -18 20 -4 53 -15 75 -27 21 -11 53 -23
71 -26 39 -8 126 14 193 48 60 30 88 31 182 5 75 -21 125 -19 164 5 15 10 51
12 136 8 114 -5 117 -5 151 21 18 14 40 26 48 26 27 0 109 101 109 134 0 8 11
26 24 39 13 13 33 50 45 83 11 32 25 66 30 75 5 8 23 64 40 124 36 125 40 187
13 213 -18 16 -18 19 1 77 11 33 23 65 28 70 14 19 14 86 0 94 -11 7 -11 9 0
14 10 3 3 14 -21 35 -19 17 -29 31 -22 32 36 1 2 62 -80 142 -32 31 -57 61
-56 65 1 4 -2 26 -7 48 -5 30 -21 53 -63 92 -30 29 -57 52 -61 51 -19 -3 -72
17 -84 31 -8 9 -17 33 -20 55 -9 59 -31 86 -71 86 -31 0 -37 5 -56 45 -19 39
-26 45 -53 45 -18 0 -54 -11 -80 -26 -27 -14 -70 -28 -97 -31 -47 -5 -50 -4
-97 40 -46 43 -53 47 -117 52 -56 4 -75 11 -104 35 -28 23 -47 30 -79 30 -23
0 -45 -4 -48 -10z m121 -69 c28 -56 53 -70 120 -70 56 1 70 -4 134 -41 64 -37
76 -41 113 -34 23 3 58 15 77 25 42 23 50 24 50 4 0 -8 -7 -15 -15 -15 -29 0
-15 -17 19 -23 19 -3 45 -13 59 -22 23 -15 24 -19 15 -58 -10 -47 -30 -72 -70
-93 -34 -18 -36 -42 -5 -49 28 -7 71 8 114 40 27 22 35 23 63 13 37 -12 126
-68 152 -94 38 -37 8 -59 -59 -43 -58 13 -95 11 -115 -8 -18 -16 -26 -49 -9
-38 6 3 38 -4 71 -15 34 -11 70 -18 79 -15 26 8 101 -56 136 -116 6 -9 25 -39
44 -65 32 -46 33 -51 27 -112 -6 -52 -12 -68 -34 -87 -26 -22 -26 -25 -13 -57
7 -18 19 -60 25 -93 10 -51 10 -66 -4 -102 -9 -23 -19 -45 -23 -49 -4 -4 -7
-16 -7 -26 0 -10 -14 -43 -31 -73 -17 -30 -33 -69 -36 -87 -2 -18 -15 -49 -28
-68 -12 -19 -30 -57 -40 -85 -21 -65 -82 -112 -147 -115 -23 -2 -52 1 -63 6
-32 14 -108 9 -155 -10 -46 -18 -87 -16 -170 9 -53 17 -163 14 -185 -5 -8 -7
-15 -9 -15 -5 0 4 -12 -4 -27 -19 -24 -25 -32 -27 -86 -22 -33 2 -63 9 -66 14
-3 6 -25 15 -49 21 -24 7 -53 24 -65 39 -12 14 -39 42 -60 61 -50 46 -94 117
-103 166 -3 22 -10 46 -14 54 -4 8 -3 27 2 43 9 24 6 35 -18 71 -39 59 -64
159 -52 211 5 23 10 88 12 145 2 77 6 106 16 109 8 3 23 15 35 28 11 12 33 26
48 29 23 6 26 11 21 29 -6 18 -5 19 10 7 10 -9 16 -10 16 -2 0 6 5 11 10 11 7
0 7 -6 1 -17 -8 -15 -24 -76 -48 -179 -3 -15 3 -26 22 -38 24 -16 31 -16 54
-5 14 8 40 29 57 47 17 17 41 33 53 33 38 2 42 4 50 18 7 10 20 12 49 8 35 -6
81 3 152 30 8 4 18 6 21 5 14 -3 37 35 42 70 7 44 -11 65 -41 49 -11 -6 -22
-8 -25 -4 -6 5 -59 10 -152 14 -42 2 -181 -9 -197 -16 -26 -10 -23 11 9 71 17
32 39 58 60 69 18 10 33 22 33 26 0 5 17 2 38 -5 25 -9 77 -12 158 -11 106 3
127 6 170 28 34 17 56 37 70 64 12 23 28 39 41 41 54 8 46 72 -9 72 -46 0 -72
-16 -102 -64 -28 -45 -64 -76 -88 -76 -7 0 -25 -7 -40 -14 -24 -13 -32 -13
-58 0 -16 9 -55 18 -85 21 -30 3 -56 11 -56 17 -5 41 23 76 60 76 37 1 65 24
58 50 -3 13 -1 20 6 18 16 -3 77 25 77 35 0 5 -4 6 -9 2 -6 -3 -26 9 -46 27
-31 27 -40 30 -56 20 -10 -7 -24 -12 -30 -12 -6 0 -31 -18 -55 -39 -28 -25
-51 -37 -63 -34 -14 3 -20 -3 -24 -27 -9 -44 -63 -91 -96 -83 -14 3 -31 11
-37 17 -7 6 -21 19 -33 28 -11 10 -21 27 -21 39 0 23 51 79 72 79 22 0 76 62
84 95 4 17 10 35 14 40 5 6 10 24 12 40 3 28 6 30 53 36 56 6 99 22 110 39 10
16 28 7 41 -19z m-86 -734 c0 -17 -78 -38 -87 -24 -3 5 2 16 12 24 24 17 75
17 75 0z"/>
<path d="M1695 1313 c-27 -9 -76 -29 -108 -44 -32 -16 -71 -29 -87 -29 -63 0
-89 -11 -95 -41 -9 -41 12 -58 73 -57 31 0 60 -6 74 -16 16 -11 46 -16 104
-16 60 0 85 -4 94 -15 18 -21 57 -19 70 4 14 28 12 76 -5 118 -8 19 -15 44
-15 54 0 21 -29 59 -45 58 -5 0 -32 -8 -60 -16z m-22 -115 c2 -18 4 -34 3 -35
-1 -1 -17 2 -36 6 -44 9 -50 33 -13 48 41 16 40 16 46 -19z"/>
<path d="M1187 1023 c-4 -3 -7 -17 -7 -30 0 -18 5 -23 25 -23 14 0 28 7 31 15
11 27 -30 58 -49 38z"/>
<path d="M537 1004 c-7 -7 50 -90 87 -127 15 -15 28 -43 32 -67 4 -22 11 -43
15 -46 5 -3 9 -16 9 -30 0 -16 16 -40 45 -68 37 -36 45 -51 45 -81 0 -76 89
-192 156 -201 21 -3 46 -8 54 -11 31 -11 133 -4 149 11 12 11 25 13 46 7 31
-8 85 10 85 29 0 6 3 9 8 8 15 -4 101 41 112 59 10 15 22 17 71 15 83 -5 105
2 124 42 9 19 25 42 36 52 10 9 19 22 19 29 0 7 9 20 20 30 11 10 20 29 20 42
0 32 17 63 35 63 8 0 15 5 15 11 0 20 74 116 107 139 37 25 42 40 14 40 -10 0
-24 7 -31 15 -24 29 -68 10 -102 -46 -12 -18 -32 -30 -64 -38 -43 -11 -84 -41
-84 -62 0 -7 -58 -37 -115 -60 -16 -6 -55 -11 -87 -10 -40 2 -68 -4 -97 -18
-65 -34 -85 -29 -176 43 -27 22 -49 30 -83 32 -26 1 -53 -3 -60 -9 -15 -12
-38 11 -69 68 -24 45 -53 66 -77 58 -12 -4 -48 -6 -81 -4 -55 2 -63 6 -107 47
-46 43 -59 50 -71 38z m486 -405 c21 -6 61 -28 90 -49 35 -27 62 -40 84 -40
17 0 34 -4 37 -9 10 -16 -25 -21 -67 -10 -34 9 -44 8 -66 -9 -14 -10 -37 -18
-51 -16 -14 1 -25 3 -25 4 0 2 -62 9 -114 14 -35 3 -88 56 -76 76 4 6 1 17 -5
25 -10 12 -9 15 4 15 9 0 16 5 16 11 0 13 107 5 173 -12z"/>
<path d="M4370 1941 c-61 -16 -77 -43 -79 -125 0 -26 -5 -53 -10 -60 -5 -6
-12 -28 -16 -48 -6 -33 -10 -37 -37 -36 -39 1 -58 39 -61 123 -3 50 -8 69 -23
80 -10 8 -24 15 -30 15 -6 0 -28 14 -49 30 -47 38 -92 40 -124 6 -24 -25 -51
-102 -51 -144 0 -14 -11 -48 -24 -76 -34 -71 -41 -103 -26 -121 7 -9 8 -15 2
-15 -14 0 -4 -117 13 -156 8 -16 23 -38 34 -48 11 -10 23 -31 26 -46 4 -19 25
-43 61 -70 58 -44 63 -61 26 -102 -17 -20 -18 -31 -27 -188 -4 -63 -8 -140
-10 -170 -2 -30 3 -88 11 -128 8 -40 12 -77 9 -82 -3 -5 -1 -11 5 -15 5 -3 10
-15 10 -25 0 -10 6 -25 13 -32 8 -7 18 -27 24 -43 7 -20 16 -29 27 -27 9 2 16
-4 16 -11 0 -8 10 -17 21 -20 15 -4 20 -11 15 -22 -13 -34 61 -133 124 -165
65 -33 142 -60 230 -79 94 -21 263 -37 280 -26 7 4 46 7 87 7 42 0 88 5 102
10 14 6 31 10 38 9 17 -2 27 20 24 55 -3 35 43 130 71 145 43 23 121 219 117
298 -1 25 2 53 5 62 4 10 6 23 5 30 -3 21 12 79 22 85 5 3 9 13 9 23 0 10 7
25 16 32 12 10 15 25 12 61 -3 26 -1 45 4 42 4 -3 8 2 8 11 0 9 9 25 20 37 11
12 20 28 20 35 0 7 9 22 21 34 23 23 23 12 -1 229 -7 67 -18 122 -26 131 -17
19 -33 89 -42 179 -11 103 -71 165 -180 186 -6 1 -15 -10 -18 -24 -3 -15 -14
-48 -25 -74 -20 -50 -26 -133 -9 -143 16 -10 12 -45 -6 -52 -25 -9 -35 11 -37
71 -1 31 -5 56 -10 56 -5 0 -7 6 -4 13 2 6 0 23 -6 37 -6 14 -11 55 -12 91 -2
64 -13 97 -42 131 -12 14 -29 16 -89 13 -41 -3 -76 0 -79 5 -11 17 -54 11 -67
-10 -7 -11 -18 -20 -24 -20 -7 0 -14 -9 -17 -20 -8 -31 -43 -25 -57 10 -7 16
-18 34 -25 40 -20 16 -128 17 -185 1z m-367 -42 c12 -6 31 -19 42 -29 11 -10
32 -20 48 -24 22 -5 27 -12 27 -39 0 -44 19 -107 41 -139 16 -22 28 -27 77
-30 31 -2 65 0 76 5 18 9 91 -17 178 -63 20 -11 54 -22 75 -25 95 -14 151 -29
220 -61 80 -37 100 -39 189 -23 71 13 77 17 94 69 11 35 11 42 -2 57 -9 10
-17 27 -18 38 -4 32 11 83 26 89 8 3 14 15 14 26 0 22 17 25 52 9 36 -16 98
-119 98 -161 0 -46 27 -156 46 -186 8 -13 21 -74 29 -137 l14 -114 -25 -45
c-14 -26 -29 -44 -33 -42 -4 3 -13 31 -21 63 -14 66 -59 123 -121 157 -21 12
-56 34 -79 51 -37 25 -50 29 -102 27 -33 -2 -68 -7 -77 -11 -9 -6 -35 -5 -61
0 -25 6 -59 11 -77 12 -29 2 -76 34 -96 64 -14 22 -111 70 -153 77 -26 4 -57
0 -82 -8 -22 -8 -42 -13 -44 -11 -2 2 -35 -23 -73 -56 -66 -58 -175 -129 -196
-129 -5 0 -12 -13 -15 -30 -4 -16 -8 -30 -10 -30 -3 0 -22 14 -58 45 -7 6 -20
15 -31 21 -10 5 -24 26 -30 45 -22 67 -37 99 -47 99 -7 0 -9 17 -6 45 3 24 1
66 -3 92 -8 43 -6 54 21 106 18 35 30 72 30 96 0 37 24 111 36 111 3 0 15 -5
27 -11z m558 -19 c4 -8 13 -30 19 -47 17 -45 40 -42 88 12 l40 45 58 -5 c115
-12 121 -14 134 -45 13 -31 5 -144 -9 -136 -8 6 -81 -15 -124 -35 -22 -10 -32
-10 -52 1 -14 7 -25 19 -25 27 0 7 -7 13 -15 13 -8 0 -24 9 -35 20 -20 20 -65
24 -87 7 -14 -10 -46 5 -83 38 -14 12 -47 31 -74 41 -82 32 -73 65 22 74 92
10 134 6 143 -10z m-4 -426 c23 -14 57 -38 75 -55 71 -66 102 -73 343 -82 80
-3 86 -7 208 -125 41 -40 47 -51 47 -86 0 -51 -21 -143 -49 -218 -12 -32 -23
-95 -27 -145 -9 -134 -62 -318 -94 -328 -11 -3 -21 -14 -24 -23 -8 -23 -116
-140 -116 -124 0 6 -7 12 -16 12 -8 0 -13 -4 -10 -9 6 -10 -59 -21 -154 -27
-133 -8 -176 -4 -255 26 -11 5 -40 16 -65 25 -25 9 -54 25 -66 36 -12 11 -51
31 -87 44 -67 24 -138 67 -168 101 -9 11 -22 36 -30 57 -7 20 -17 37 -21 37
-4 0 -8 10 -8 23 0 12 -9 56 -19 97 -16 65 -17 78 -5 97 8 12 13 35 12 50 -3
54 2 103 12 103 5 0 26 -16 46 -35 32 -31 40 -34 73 -29 35 6 39 4 54 -28 31
-66 35 -84 27 -128 -10 -57 -2 -71 64 -108 41 -24 61 -44 85 -85 26 -47 62
-77 96 -83 6 -1 12 -3 15 -4 3 -1 16 -3 29 -6 14 -2 29 -8 35 -13 6 -5 39 -12
74 -15 50 -4 64 -2 68 9 4 8 10 13 14 10 4 -3 20 5 35 17 18 14 48 23 88 27
51 5 62 9 67 27 7 30 53 94 67 94 19 0 27 21 12 31 -26 16 -1 20 45 7 55 -15
66 -6 66 53 0 34 -19 61 -57 83 -14 8 -63 -15 -82 -38 -11 -13 -11 -17 2 -22
22 -8 9 -41 -29 -72 -18 -15 -41 -45 -50 -67 -20 -49 -24 -51 -80 -53 -27 -2
-66 -14 -104 -34 -55 -29 -63 -30 -98 -19 -20 6 -61 17 -90 24 -47 12 -57 19
-90 68 -26 38 -51 61 -84 76 -46 22 -46 23 -46 74 -1 76 -11 109 -48 160 -19
26 -34 58 -34 72 0 43 -20 76 -51 82 -22 5 -39 -1 -74 -25 -25 -17 -45 -30
-46 -28 -1 2 -3 31 -4 66 -3 57 -1 67 31 114 19 29 34 58 34 64 0 20 41 64 59
64 20 0 38 13 145 106 44 38 96 76 114 83 17 8 32 17 32 22 0 14 62 -2 107
-27z"/>
<path d="M4231 1241 c-13 -3 -29 -15 -35 -26 -6 -11 -21 -37 -33 -57 -31 -50
-29 -65 13 -104 26 -25 45 -34 70 -34 19 0 34 5 34 10 0 20 22 10 58 -26 32
-32 40 -35 71 -29 54 10 72 38 64 105 -6 56 -13 80 -35 115 -23 36 -42 45 -93
43 -27 0 -59 1 -70 4 -11 3 -31 3 -44 -1z m159 -48 c0 -7 -7 -13 -15 -13 -8 0
-33 -19 -55 -42 -64 -65 -120 -88 -120 -48 0 11 4 20 10 20 5 0 12 16 16 35 3
20 12 42 19 49 17 17 145 16 145 -1z"/>
<path d="M4761 1111 c-57 -45 -75 -65 -76 -85 0 -14 2 -26 6 -26 4 0 9 -9 12
-19 3 -12 20 -24 47 -32 23 -7 49 -24 58 -37 36 -54 80 -92 106 -92 37 0 106
39 106 59 0 10 9 26 20 36 11 10 20 24 20 31 0 7 7 19 15 28 9 8 15 19 14 23
-1 4 1 16 6 26 4 10 3 29 -3 41 -9 21 -15 22 -67 18 -52 -4 -59 -2 -81 21 -13
14 -24 30 -24 35 0 11 -45 32 -68 32 -10 0 -51 -27 -91 -59z m137 -22 l31 -46
-50 -33 c-43 -27 -57 -32 -91 -27 -40 5 -58 19 -58 44 0 7 24 28 54 48 30 20
60 42 66 51 7 8 14 13 15 12 1 -2 16 -24 33 -49z"/>
<path d="M4512 926 c-34 -31 -38 -40 -40 -88 -2 -46 1 -58 22 -77 14 -13 35
-22 48 -21 13 0 46 2 73 3 69 3 91 21 90 74 -1 37 -8 47 -56 92 -31 29 -63 51
-76 51 -13 0 -40 -15 -61 -34z"/>
<path d="M56 1485 c-36 -27 -11 -89 42 -105 67 -19 104 26 65 78 -23 31 -81
45 -107 27z"/>
</g>
</svg>
