<svg id="SvgjsSvg1001" width="288" height="288" xmlns="http://www.w3.org/2000/svg" version="1.1" xmlns:xlink="http://www.w3.org/1999/xlink" xmlns:svgjs="http://svgjs.com/svgjs"><defs id="SvgjsDefs1002"></defs><g id="SvgjsG1008"><svg xmlns="http://www.w3.org/2000/svg" width="288" height="288" version="1.0" viewBox="0 0 357.358 127.305"><g transform="matrix(.1 0 0 -.1 -14.324 156.305)" fill="#b70e21" class="color000 svgShape"><path d="M3128 1562c-25-5-29-27-13-66 8-20 15-44 15-55 0-10 7-22 15-25 9-3 15-11 14-18-2-14 2-27 39-108 21-47 52-141 52-161 0-4-26-9-58-13-32-4-68-14-81-22-20-15-24-15-42 2-10 9-19 24-19 32 0 24-23 82-33 82-4 0-5 4-2 10 3 5-1 20-9 32-8 13-18 41-22 63-10 59-20 73-61 84-28 8-39 7-45-2-16-26-30-123-24-171 4-28 9-71 12-96l6-45-28 38c-15 20-31 37-36 37-4 0-8 6-8 13 0 7-11 21-25 31-14 10-25 24-25 31 0 7-11 24-25 39-14 15-25 32-25 37 0 6-11 25-24 42-13 18-26 41-28 52-3 16-11 20-48 20-42 0-45-2-44-25 1-14 4-33 8-42 7-15 2-16-48-11-39 4-56 2-56-6 0-7-11-9-31-6-16 3-47 1-67-5-36-9-92-58-92-79 0-6-4-19-9-29-5-9-12-26-16-36-9-31-12-16-19 99-8 120-13 148-26 140-12-8-30 25-30 55 0 17-26 11-45-9-15-17-17-39-16-155l2-135-33-15c-33-15-60-19-112-17l-29 1 5 97 5 96-37 36-38 36-7-35c-4-19-9-76-12-127l-4-92-57-6c-31-4-63-8-69-10-21-7-15-35 7-35 10 0 41-5 69-11l49-10 11-87c6-48 16-109 21-137 16-86 25-188 22-251-3-69 4-78 60-88 34-6 37-5 47 26 9 30 7 171-4 187-7 13-41 210-47 278-3 38-5 37 69 27 39-5 63-3 76 6 17 10 22 9 31-6 11-20 17-83 15-164 0-8 1-57 2-108 1-59-2-97-10-105-33-33 6-77 68-77 36 0 43 4 53 28 7 15 11 59 11 97l-1 70 23-63c27-75 70-142 90-142 8 0 15-5 15-12 0-6 3-9 6-6 3 4 25 0 50-9 41-14 45-14 73 6 16 12 40 21 54 21 13 0 36 11 50 24 14 13 39 33 57 46 21 15 30 29 27 41-3 10 1 20 9 23 9 4 14 22 14 53 1 40 2 45 12 29 13-23 26-74 34-136 8-64 36-90 62-58 16 20-36 329-68 403-9 22-30 85-30 92 0 14 26-18 79-97 34-49 61-96 61-104 0-24 11-46 21-41 4 3 16-6 25-20 22-33 28-32 54 12 15 25 20 46 16 67-3 17-8 54-11 81-3 28-8 62-11 78-17 85 49-34 137-243 28-69 52-134 53-145 1-26 37-85 51-85 19 0 45 67 38 100-3 17-10 33-14 36-5 3-9 13-9 23 0 10-9 30-20 44-11 14-20 35-20 46 0 12-4 21-10 21-5 0-10 9-10 19 0 21-45 117-67 142-12 14-8 18 41 33 63 20 121 18 121-4 0-8-12-21-27-28-16-7-28-18-28-24 0-25 33-156 46-180 8-14 14-33 14-41 0-22 99-116 139-133 18-8 53-14 78-14 37 0 49 5 74 33 16 17 38 41 49 52 28 29 26 71-2 79-42 11-64 6-89-20-21-23-78-54-99-54-12 0-66 110-80 162-10 38-10 51 0 63 7 8 13 38 13 66l1 51 35-6c20-4 70-9 111-12 74-5 76-5 133 32 31 21 57 44 57 50 0 7 6 15 13 18 16 7-20 36-46 36-11 0-42-18-69-40-48-38-55-40-117-40-117 0-139 7-152 49-6 20-15 41-20 47-5 6-7 13-4 16 3 3-1 11-10 18-8 7-15 20-15 30 0 9-3 20-7 24-4 3-8 12-9 19-1 7-14 35-30 62-32 55-42 95-24 95 16 0 63-33 133-93 41-35 62-46 69-39 18 18-1 61-52 114-50 52-92 81-140 97-25 9-78 16-92 13zm-576-375c15-19 44-84 74-162 11-29 13-48 20-155 9-161-26-212-144-207-90 4-103 28-159 302-20 104 9 261 50 267 41 6 141-22 159-45zm437-67c0-9-6-4-14 10-8 14-14 34-14 45 1 15 4 13 14-10 8-16 14-37 14-45zM1221 1454c-21-26-25-46-21-91 2-30-6-29-42 7-56 56-117 32-139-55-11-44-29-53-29-15 0 11-10 24-21 31-18 9-26 7-48-9-24-18-26-24-23-83 4-66 26-161 68-287 48-144 23-111-93 123-40 83-81 166-91 185-12 25-25 36-45 38-62 7-46-54 85-320 48-98 87-181 88-183 0-3 14-28 30-57 17-29 40-74 51-100 12-27 25-48 30-48 5 0 9-7 9-15 0-8 10-31 23-50 22-35 55-45 85-26 28 17 9 158-47 361-53 192-91 343-90 363 0 14 6 5 16-23 8-25 17-52 20-60 3-8 7-19 8-25 0-5 5-19 9-30 5-11 21-56 38-100 29-81 33-90 62-157 9-20 16-42 16-50 0-7 8-25 17-38 10-14 15-27 13-30-3-3 10-6 28-8 29-3 32-1 32 23 0 14-7 37-16 50-9 14-17 38-19 55-1 16-7 35-12 42-26 32-120 358-116 402 4 55 11 61 38 36 14-13 25-31 25-39 0-9 12-36 26-61 14-25 39-79 54-120 16-41 34-88 41-105 6-16 13-36 15-44 1-8 7-17 12-20 6-3 12-19 15-36 2-16 12-47 20-68 9-20 16-40 17-42 0-3 0-6 1-7 2-7 10-55 11-70 1-10 7-18 13-18 6 0 17-9 25-20 8-11 25-20 37-20 18 0 23 6 23 24 0 14 5 28 11 32 7 4 7 9 1 13-5 3-21 42-35 86-13 44-45 130-70 191-48 118-88 276-91 355-2 78 3 64 70-166 10-33 24-76 33-95 8-19 14-38 13-42-1-5 1-8 5-8 5 0 9-14 10-31 1-17 12-46 23-65 12-18 19-38 16-43-3-5 0-14 7-20 8-6 20-36 27-66 7-30 17-55 22-55 4 0 8-9 8-20 0-33 34-62 66-58 26 3 29 7 28 38-1 37-24 131-35 140-10 9-102 234-155 380-19 52-41 109-49 127-8 17-15 36-15 41 0 6-15 27-34 46-41 44-76 47-105 10zM595 1356c-35-53-29-141 20-302 5-17-2-27-38-52-53-36-50-40-72 91-9 50-22 117-30 147-7 30-16 67-19 83-6 23-9 26-26 17-30-16-35-102-16-249 9-70 19-136 22-147 4-15-5-24-41-42-25-12-51-22-57-22-6 0-45-12-86-27-50-19-80-37-94-56-25-35-17-61 16-53 14 3 28 2 31-4 9-15 58-12 81 5 10 8 28 15 40 15 11 0 43 11 70 25 66 34 74 32 74-12 0-21 6-55 14-78 18-52 41-283 32-334-3-23-2-42 4-46 6-4 8-11 5-16-4-5 1-9 9-9 9 0 16 3 16 8 0 4 12 21 27 37 41 43 44 104 18 305-3 25-7 52-9 60-4 23-26 132-32 157-3 18 4 28 36 48 22 14 40 32 40 40 0 7 5 17 11 21 7 4 10 1 7-7-3-8 5-38 18-67 13-29 23-56 22-60-2-10 12-63 24-92 9-22 45-210 51-264 3-28 41-39 61-17 9 10 16 22 15 27-1 5 3 23 10 39 11 25 10 46-4 123-9 50-21 95-26 98-5 3-9 18-9 34 0 26-5 42-31 105-4 11-13 40-19 65-12 51-45 149-66 197-8 17-14 38-14 46 0 8-7 32-16 53-9 22-17 59-18 84-1 53-25 66-51 26z" fill="#b70e21" class="color000 svgShape"></path></g></svg></g></svg>