<?xml version="1.0" standalone="yes"?>
<svg xmlns="http://www.w3.org/2000/svg" width="551" height="775">
<path style="fill:#fefefe; stroke:none;" d="M0 0L0 253C2.01523 252.491 4.06442 251.796 6.16744 252.188C14.7506 253.786 14.1594 265.483 5.11497 262.127C3.32283 261.461 2.31133 260.312 1 259C-0.552028 262.699 0 267.017 0 271L0 292L0 368L0 632L0 717L0 737C0.00495927 739.406 -0.553491 743.118 1.6034 744.821C12.2202 753.202 20.0011 729.319 10 726C11.8579 724.901 14.4349 722.859 16.7731 723.525C22.1248 725.05 21.4058 736.892 21 741C24.0559 742.739 26.8458 745.009 30 746.562C32.5803 747.833 35.5678 748.228 37.706 750.299C39.4344 751.974 41.026 755.689 37.7315 756.721C34.0687 757.87 29.2209 754.444 25 755C25.323 762.522 26.5892 767.762 24 775L551 775L551 646L546 650C545.938 653.25 545.405 656.134 542 657L542 663C540.521 662.014 540.797 662 539 662C540.82 666.301 540.841 669.451 540 674C538.889 672.257 538.73 671.881 537 671C537.807 677.493 534.706 682.698 533.671 688.999C533.245 691.599 532.249 694.029 534 696C533.036 699.375 533.483 702.67 532.837 706.089C531.62 712.534 528.552 720.099 525.676 726C522.467 732.586 516.732 737.534 513.171 744C511.158 747.654 512.555 754.628 509.593 757.165C503.052 762.767 491.71 760.249 484 760.88C467.453 762.234 451.688 760.335 436 754.53C429.473 752.115 423.185 749.764 418.015 744.906C411.87 739.132 409.013 731.059 405 724C403.203 724 403.479 724.014 402 725C401.149 722.327 400.41 719.775 400 717C394.82 713.981 394.739 708.307 396 703L393 704C393.94 697.771 392.018 689.288 391 683C392.974 681.559 392.65 676.608 392.681 673.94C392.736 669.131 392.363 663.729 393.023 659C393.59 654.94 395.276 649.486 393 646C394.398 643.949 395.251 642.354 396 640C397.915 641.277 397.085 641.277 399 640C398.292 631.732 392.091 631.18 388.085 624.907C384.667 619.554 379.809 613.095 377.978 607C376.63 602.513 376.856 597.61 376 593L378 594C376.268 586.321 378.57 583.097 381.391 576C383.548 570.574 384.039 564.591 385.645 559C387.442 552.743 392.839 546.907 399.91 549.742C402.303 550.701 403.966 552.79 406.09 554.177C409.304 556.275 412.727 557.273 414.504 561.019C417.038 566.361 413.915 572.411 417.417 577.852C419.465 581.033 422.589 580.96 426 581C426.754 571.845 430.725 563.428 430 554C437.278 550.432 449.773 543.84 457.904 549.129C461.008 551.148 462.59 554.735 464 558L469 558C471.935 547.909 483.055 548.36 491 552C492.739 551.237 494.733 550.07 496.704 550.139C506.26 550.474 504.902 566.146 505.39 572C505.71 575.842 507.266 579.092 507 583C510.066 586.717 509.624 593.232 510 598C511.776 597.862 514.621 597.992 515.1 595.682C515.695 592.805 513.081 589.1 513.034 586C512.954 580.658 515.437 576.825 517.191 572C517.972 569.851 517.936 566.367 520.318 565.238C527.601 561.785 536.248 573.054 539.125 578C541.851 582.687 540.437 587.926 541.594 593C543.036 599.322 545.944 604.892 547.575 611C549.671 618.849 549.363 627.928 550 636C552.189 630.784 551 623.619 551 618L551 581L551 451L551 0L0 0z"/>
<path style="fill:#1d1d1d; stroke:none;" d="M39 121L42 121C41.2778 124.89 43.6213 127.52 43.2924 131.089C42.6602 137.953 32.8729 141.61 28 145C28.1131 147.56 27.7345 149.544 27 152C33.4435 158.266 35.9859 171.289 46 173C49.2345 178.419 59.7227 183.575 66 183.956C71.1584 184.269 77.0551 182.824 82.0039 184.738C90.6248 188.073 98.1576 195.493 108 195.424C115.969 195.368 122.401 190.079 130 189.133C137.965 188.141 145.545 189.762 152.957 185.562C158.685 182.315 161.457 175.31 167 171.564C173.064 167.466 182.162 168.79 187.034 162.671C189.706 159.314 191.977 154.338 191.786 150C191.645 146.781 189.731 143.192 190.635 140.001C191.868 135.649 196.766 133.752 198.821 129.911C200.879 126.063 199.336 121.17 200 117L197 118C196.791 110.923 191.106 107.324 190.113 101C189.171 95.0005 192.043 89.5334 192.856 83.9105C193.906 76.6581 191.71 65.7216 188.977 59C185.652 50.8214 177.324 47.3997 173 40C179.108 39.8441 179.214 47.3459 185.995 45.5046C189.8 44.4717 196.232 35.7958 190 35L190 31C176.894 25.4044 177.434 4.80981 160 4.3457C153.626 4.17603 146.133 9.92853 140.001 11.7824C136.729 12.7714 133.429 12.9584 131.434 16.1443C128.801 20.3484 131.155 25.728 128.258 29.8704C126.292 32.6798 122.867 33.967 120.464 36.3395C116.791 39.9656 114.423 44.7078 110.91 48.4421C107.269 52.3127 102.588 51.2614 98.0147 52.8542C93.6077 54.3891 88.8841 58.7894 85.375 61.8349C81.1588 65.4941 75.5264 71.146 72.8341 76.0394C70.7443 79.8377 70.1987 84.4334 67.49 87.9059C64.1011 92.2503 58.4155 92.8472 54.7539 96.6381C52.5304 98.9401 51.8473 102.132 50.0802 104.714C46.2885 110.256 41.9201 114.803 39 121z"/>
<path style="fill:#fefefe; stroke:none;" d="M119 56C124.13 55.5804 128.863 53.2889 134 54C127.427 65.5291 112.504 57.6786 102.004 60.3796C98.1893 61.3609 95.738 64.032 92.9113 66.5911C85.5289 73.2742 79.6202 80.6849 76 90L77 91C80.0015 89.2203 82.5742 85.5963 86.0039 84.7315C91.0714 83.4538 95.775 88.5964 100 90.4321C103.51 91.9569 106.824 91.6274 109 95C114.6 93.8876 117.809 99.6315 120 104C114.554 104.854 110.339 102.49 105 102.09C94.8265 101.328 77.2252 107.411 75 93C71.8869 96.345 69.8203 99.0016 65 99C65 101.964 61.6835 102.642 59.8333 105C56.8917 108.749 53.7925 113.861 51.5 118C47.6922 124.875 54.4107 129.592 52.8333 136C51.5982 141.018 44.6721 143.744 43 148L39 147C39.0756 149.117 37.4317 150.76 38.1667 153C38.7422 154.754 40.494 155.663 41.6667 157C44.189 159.876 46.1365 163.427 49 166C52.5143 169.158 59.5169 171.881 64 173.5C69.0151 175.311 74.4191 172.117 78 177L80 177C85.225 172.153 87.3546 169.177 89 162C90.6808 162.864 92.945 163.668 93.9336 165.42C97.3501 171.474 87.2863 176.312 93.1235 182.811C101.817 192.49 112.073 185.133 122 183.313C125.306 182.707 128.672 183.883 132 183.806C136.717 183.696 141.309 182.373 146 182C146 180.203 145.986 180.479 145 179C150.383 176.465 152.392 170.934 157.171 167.574C160.284 165.385 164.316 164.965 168 165C170.301 163.14 171.165 163.151 174 164C180.951 158.039 185.82 149.976 183 141C177.444 142.329 172.818 144.777 167 145C170.331 133.674 186.67 135.232 191.12 124.74C193.223 119.783 190.772 112.079 187.582 108.089C185.434 105.403 181.988 103.482 181.022 99.9854C180.068 96.5284 182.205 92.4343 182.714 89C184.333 78.0713 186.808 66.5363 180.573 56.2631C174.486 46.2361 159.66 47.0702 153.11 36.9992C148.439 29.8176 153.709 21.9973 162 22L158 30C159.915 31.2767 159.085 31.2767 161 30C164.861 37.826 168.556 33.4773 175 33.9282C178.607 34.1807 181.047 37.3567 183 40L187 39C183.92 33.4901 179.686 30.3121 175.474 25.8002C169.795 19.7178 165.56 8.80597 155 11.162C152.102 11.8087 149.662 13.5789 147 14.7917C144.491 15.9349 141.44 16.3292 139.434 18.3642C134.906 22.9568 139.283 29.8721 135.333 34.6566C133.407 36.9893 130.428 37.7684 128.09 39.5486C122.85 43.5365 119.339 49.4839 119 56z"/>
<path style="fill:#1d1d1d; stroke:none;" d="M58.1049 27.7855C49.5932 30.8521 54.3883 41.7222 62.9846 38.3712C71.9007 34.8954 65.3555 25.1733 58.1049 27.7855M1 95C1.59207 102.599 7.27324 99.8825 13 101C10.499 105.532 10.7989 108.98 11 114C13.9437 113.29 15.3918 112.573 17 110L19 110C21.1312 113.01 23.586 112.71 27 112C26.4943 108.728 25.3652 104.242 27.6173 101.394C31.627 96.3248 38.6245 97.4325 37 89C38.6864 89.2183 39.3162 89.2239 41 89C36.2134 84.7347 30.7016 91.1713 25 92C24.7182 88.0314 25.224 82.8887 23.4113 79.2438C22.3206 77.0508 19.6313 76.3373 18.0262 78.4776C15.3274 82.0764 18.1254 87.9585 14.5965 91.2169C11.6057 93.9784 4.90122 94.2095 1 95M159 79.6536C154.648 80.9979 152.399 84.6826 148.845 87.1682C145.864 89.2529 142.106 89.8243 139.044 91.8411C137.402 92.9227 135.083 94.5587 135.752 96.865C136.385 99.0526 139.021 99.738 141.005 99.848C144.936 100.066 148.166 97.517 152 97.3974C156.143 97.2682 159.769 99.6633 163.981 98.3434C174.127 95.1647 171.239 75.8734 159 79.6536M83 119C82.0143 120.479 82 120.203 82 122C78.2065 117.75 73.3706 114.544 70 110C67.1071 117.238 72.6302 124.25 79.0386 127.541C81.6483 128.881 85.3159 128.178 87.2894 130.523C91.2592 135.24 93.0498 140.974 99.0039 143.875C103.562 146.096 109.191 144.939 113.576 147.282C118.802 150.076 121.703 155.988 127.424 158.232C132.32 160.152 138.055 159.401 141.157 154.905C142.776 152.56 143.258 149.585 145.249 147.468C148.023 144.521 150.942 143.851 153 140C154.023 141.534 153.805 141.402 155 142C156.411 139.194 157.105 135.904 158.84 133.286C161.25 129.647 164.857 126.973 166.85 123C168.11 120.491 168.342 117.629 169.532 115.089C171.429 111.042 174.327 108.598 175 104C159.403 104.682 158.466 122.296 145 126.896C137.254 129.542 126.1 133.405 118 130.142C112.901 128.088 109.47 123.461 104.001 121.923C97.4416 120.078 89.8043 120.405 83 119M27.6667 141.333C27.2223 141.778 28.2778 141.722 28.3333 141.667C28.7779 141.222 27.7223 141.278 27.6667 141.333M59.3333 141.667C59.2779 141.722 59.2221 142.778 59.6667 142.333C59.7223 142.278 59.7778 141.222 59.3333 141.667M23 145L24 146L23 145M24.3333 147.667C24.2776 147.722 24.2223 148.778 24.6667 148.333C24.722 148.278 24.778 147.222 24.3333 147.667M145 148L146 149L145 148z"/>
<path style="fill:#fefefe; stroke:none;" d="M36 163L37 164L36 163M65 181L66 182L65 181z"/>
<path style="fill:#1d1d1d; stroke:none;" d="M17 193C15.6868 197.142 16.2317 205.349 13.2577 208.397C10.3934 211.332 3.98564 209.277 2.49691 214.171C1.15412 218.585 9.12859 220.54 9.4838 225.04C9.98195 231.351 4.03715 236.396 5 243L10 243L18 227L23 238C28.6662 236.21 27.9862 231.719 26 227C35.1072 228.919 32.8513 220.139 28.2901 215.545C26.6921 213.935 24.5289 213.061 23.6026 210.857C20.8957 204.413 24.5387 196.956 17 193M41 230C42.393 240.08 52.5262 248.976 62 252C55.462 256.169 53.0951 261.635 48.5448 267.561C44.9412 272.254 38.8923 274.55 35.6528 279.443C32.3832 284.381 33.7035 292.318 32.9352 298C32.5758 300.657 31.3683 303.321 31.3426 306C31.2849 312.017 36.2826 316.485 36 323C37.4785 323.986 37.2032 324 39 324L38 336C39.2997 335.35 39 335.853 39 334C39.025 335.935 38.9094 336.256 38 338C40.4164 340.964 42.0894 343.114 42 347C44.0191 348.15 44.7234 349.015 46 351L49 350L49 357C50.7969 357 50.5214 356.986 52 356C56.0125 366.316 61.4164 369.491 71 373.528C76.5757 375.876 80.7466 378.084 87 377.051C93.7065 375.943 99.3345 370.792 106 370.228C111.874 369.732 117.151 373.615 123 373.656C129.472 373.701 135.339 370.93 142 370.996C146.81 371.044 152.3 371.679 157 370.529C165.192 368.526 174.526 359.921 173 351C177.685 350.059 179.093 345.15 180.684 341C183.968 332.43 187.417 324.042 189.331 315C190.213 310.836 191.072 304.172 186 303C188.329 295.856 195.237 285.811 190 279L192 280C189.805 275.34 188.006 269.264 184.941 265.17C182.102 261.376 177.585 258.895 175.14 254.83C172.691 250.76 173.167 246.133 169.811 242.428C167.627 240.017 165.071 237.39 162.13 235.934C159.626 234.695 156.514 234.485 154.444 232.439C151.718 229.746 152.041 225.251 149.914 222.148C147.781 219.036 144.227 219.677 141.637 217.398C139.694 215.688 139.083 212.75 136.61 211.604C129.078 208.114 121.71 217.95 114 215.244C110.207 213.913 107.604 210.427 104 208.702C100.473 207.014 96.6529 207.821 93 206.758C89.279 205.675 86.7497 202.428 83 201.434C77.9541 200.097 68.3516 202.599 63.483 204.43C58.4963 206.305 58.8518 214.758 56.2106 218.826C53.2717 223.352 45.6285 227.349 41 230z"/>
<path style="fill:#fefefe; stroke:none;" d="M70 233C70.9857 234.479 71 234.203 71 236C75.0955 233.635 80.5203 227.127 85.5756 227.495C88.8055 227.731 91.7721 231.103 95 232C92.3487 233.373 89.9803 234.718 87 235C85.8208 242.457 77.5761 241.806 75 249C83.2368 252.145 93.3823 254.5 101.381 249.892C105.902 247.287 110.714 235.561 117.311 238.505C119.143 239.322 120.343 241.63 119.174 243.444C118.194 244.964 116.044 245.505 114.748 246.722C111.968 249.334 110.441 252.236 106.985 254.211C97.3437 259.721 82.107 258.288 72 255C67.0638 260.428 62.02 264.202 61 272C66.1563 270.772 71.713 270.42 77 269.965C80.849 269.633 84.2088 270.43 88 270.687C91.3841 270.916 96.5664 270.046 99.6821 271.443C105.386 274.001 99.0173 280.747 95.9954 282.211C87.7033 286.228 78.1989 284.746 70.0795 288.764C66.0389 290.763 61.5129 299.106 56.358 294.373C52.1536 290.513 58.0548 277.377 60 273C58.6859 273.768 58.7679 273.686 58 275C56.5215 274.014 56.7968 274 55 274L56 277C51.7124 277.683 48.9805 279.052 47 283C45.0851 281.723 45.915 281.723 44 283C45.8421 292.44 42.3165 301.674 42.7531 311C43.0759 317.895 46.8289 322.799 48.956 329C50.6961 334.073 49.131 339.703 51.1296 345C53.9417 352.453 62.0128 362.314 69.0934 366.085C75.525 369.51 82.1264 370.206 89 372C94.1593 365.537 102.365 363.296 110.439 365.11C114.872 366.105 119.347 368.166 124 368.026C128.945 367.878 133.137 364.46 138.255 364.836C144.702 365.311 150.872 367.945 156.985 363.968C164.727 358.929 168.195 346.253 171.243 338C173.982 330.586 179.365 323.005 180.241 315C180.846 309.473 176.805 304.275 177.232 299.015C177.434 296.534 179.485 294.885 180.441 292.715C181.773 289.692 182.335 285.243 181.718 282C180.998 278.214 178.323 275.089 176.191 272C173.21 267.683 170.043 262.36 164.985 260.214C162.499 259.159 159.61 259.299 157 258.664C153.464 257.803 150.637 256.543 147 257C151.23 248.224 159.268 253.103 167 252C164.827 245.88 154.95 238.108 148 239.078C141.925 239.926 138.722 244.657 132 244C133.686 240.685 136.629 238.91 138.737 235.896C140.795 232.952 141.329 229.447 142 226C138.312 224.497 134.099 223.451 131 221L134 222C132.65 215.647 122.764 223.519 118 222.417C113.298 221.328 109.576 217.015 105 215.5C100.978 214.169 96.8636 216.568 93 214.722C89.5123 213.056 88.8531 209.273 85.8889 207.417C84.5789 206.596 83.3317 206.795 82 207.444C79.6894 208.571 77.6213 210.124 75 210.5C72.8025 210.815 70.3244 209.761 68.5 211.5C65.6982 214.17 66.0254 220.551 64.0833 224C61.0424 229.4 50.0868 231.417 50.4722 238C50.8124 243.811 59.3049 247.121 63.9167 244.5C67.4985 242.464 69.0816 236.768 70 233M143 225L144 226L143 225z"/>
<path style="fill:#1d1d1d; stroke:none;" d="M3.14815 252.147C-0.140702 253.211 -0.33407 257.15 1.31867 259.722C3.14858 262.57 7.76931 263.704 10.8511 262.393C18.2283 259.254 8.83058 250.309 3.14815 252.147z"/>
<path style="fill:#fefefe; stroke:none;" d="M168 257L167 259L169 259C169 257.147 169.3 257.65 168 257z"/>
<path style="fill:#1d1d1d; stroke:none;" d="M164 267C158.997 268.157 153.662 269.499 149 271.666C145.738 273.182 142.577 275.055 139.004 275.748C135.978 276.334 131.062 275.504 129.786 279.235C128.71 282.381 131.162 284.641 134.019 285.218C142 286.828 150.023 287.07 158 288.373C161.018 288.867 164.529 291.871 167.566 289.953C172.103 287.088 169.082 279.784 167.896 276.004C166.833 272.616 166.049 269.942 164 267z"/>
<path style="fill:#fefefe; stroke:none;" d="M186 273L187 274L186 273M70 279C73.0284 280.953 75.6709 280.117 79 279L79 277C75.2714 276.144 73.2443 277.035 70 279M148 279C149.942 282.084 152.475 282.512 156 283L155 277L148 279M41 282L41 284C42.6351 283.455 42.4549 283.635 43 282L41 282M42.3333 288.667C42.2778 288.722 42.2222 289.778 42.6667 289.333C42.7222 289.278 42.7778 288.222 42.3333 288.667M182 289L182 291L184 291C183.455 289.365 183.635 289.545 182 289z"/>
<path style="fill:#1d1d1d; stroke:none;" d="M108 301C111.41 300.737 112.901 300.321 114 297C110.107 296.345 108.663 297.033 108 301M47 298C49.0871 303.692 53.0807 307.182 56.3364 312.09C59.1101 316.27 59.4905 321.55 61.7539 325.985C63.3428 329.099 66.3781 331.047 67.9761 334.09C69.2628 336.539 68.8506 339.416 69.6991 342C71.3517 347.033 75.4607 352.417 80.0008 355.142C87.9237 359.898 96.7469 357.883 105 356.346C109.925 355.43 113.169 357.09 116 352C121.043 351.798 125.635 349.548 128 345C132.177 345.994 138.085 347.018 142.181 345.142C144.783 343.95 146.062 341.259 147.579 338.996C151.369 333.346 153.952 326.957 157.755 321.464C162.248 314.973 169.162 309.643 173 303C170.138 302.507 167.11 299.812 164.222 300.333C159.718 301.147 159.048 305.857 155.889 308.139C153.243 310.05 149.747 309.909 147.028 311.639C144.046 313.536 142.293 316.552 139.083 318.278C136.417 319.711 132.367 320.375 131 323C126.851 321.774 122.197 321.509 118 322.85C114.648 323.92 111.671 326.345 108 325.099C103.149 323.453 99.929 318.692 95 317.034C91.3259 315.798 86.9639 318.205 83.6188 316.11C79.778 313.705 78.9345 307.817 74.6713 306.042C70.3746 304.253 64.7091 307.152 60 305.397C54.9818 303.527 52.58 298.861 47 298z"/>
<path style="fill:#fefefe; stroke:none;" d="M187 305L187 307C188.635 306.455 188.455 306.635 189 305L187 305M74 336C75.0576 339.004 75.7976 342.366 78.1991 344.631C81.8467 348.072 92.2549 349.544 97 348.676C99.4323 348.231 101.527 346.746 104 346.468C107.207 346.108 110.745 346.973 114 347L114 345C106.459 344.823 103.195 340.751 96.9105 337.543C90.0208 334.026 81.1221 333.457 74 336M63 369L64 370L63 369z"/>
<path style="fill:#1d1d1d; stroke:none;" d="M24 372C24.6554 381.23 31.7477 398.177 17.0247 398.008C15.2516 397.988 13.6857 397.48 12 397L13 406L18 405L18 413L21 412C19.7369 418.509 16.7584 424.76 20 431C24.5484 428.957 28.1881 426.277 28 421C32.4579 418.422 33.5456 413.39 38 411C39.4943 414.846 41.2761 417.18 45 419C48.3165 411.976 42.9823 408.707 42 402C44.7052 402.662 54.926 403.255 52.338 397.433C51.4508 395.437 48.7583 395.784 46.9954 395.498C43.4393 394.923 38.0755 393.856 35.3032 391.436C30.0512 386.852 30.8294 377.132 29 371L24 372M129 400C125.174 404.688 116.836 409.95 110.961 411.686C107.365 412.748 103.572 411.479 100 412.853C92.3468 415.799 83.7657 418.994 76.4244 422.738C71.9728 425.009 68.5296 428.729 64 431C61.684 439.255 52.1661 439.686 46.1289 443.966C41.7458 447.074 40.1866 452.05 37 456C37.1973 460.766 32.9882 465.98 35 470C32.014 474.263 33.6618 479.139 32.4151 484C31.2463 488.557 28.715 493.317 28.3133 498C27.8207 503.742 31.0631 509.701 32.811 515C35.4935 523.132 35.5802 532.76 40.9159 539.826C45.3359 545.68 52.9268 549.133 59 553L63 551C61.8137 552.186 61.4721 552.584 61 554L67 552L69 555L71 555L72 553C72 554.797 72.0143 554.521 73 556C77.3149 555.832 81.4299 557.268 85.7145 557.691C95.5777 558.664 105.211 558.656 115 560.3C119.99 561.138 125.221 565.702 130 563C137.18 567.926 143.206 559.835 150 558.523C155.238 557.512 163.535 560.346 169 561C170.757 559.339 171.577 559.017 174 559C179.6 547.8 183.771 536.171 189.667 525C191.383 521.748 193.497 514.452 197 514L195 510C196.915 511.277 196.085 511.277 198 510L196 499C199.797 495.492 198.543 489.009 199.562 484.426C200.054 482.217 201.411 480.218 202 478L199 479C199.684 477.42 199.805 477.223 201 476C199.857 472.658 197.457 464.513 194 464C193.923 460.282 194.034 456.454 191 454C191.443 450.185 190.999 444.604 188 442C188.74 436.633 187.079 432.236 182 430L183 425C179.87 422.381 177.446 419.209 174 417C180.048 406.508 173.47 394.104 165 387C162.299 387.905 159.762 387.262 156.999 387.825C152.654 388.711 147.977 390.863 144 392.794C138.949 395.246 134.884 400.154 129 400M73.0008 395.592C64.1612 396.564 64.4418 410.044 73.9599 408.612C81.8772 407.421 81.4331 394.664 73.0008 395.592z"/>
<path style="fill:#fefefe; stroke:none;" d="M131 409C124.873 409.284 119.976 411.426 117 417C115.521 416.014 115.797 416 114 416C118.405 424.014 122.442 422.178 129.576 419.133C131.749 418.206 138.25 414.255 139.4 418.184C140.514 421.99 134.402 423.852 132 425.15C124.22 429.356 114.572 428.581 110 420C100.165 419.798 91.4917 421.522 85 430C75.2045 428.197 69.9442 436.831 63.8302 442.826C58.4062 448.144 49.129 447.95 45.4568 455.019C43.8365 458.137 44.1784 461.701 43.2006 465C42.2916 468.067 40.4727 470.761 40.1474 474C39.5213 480.233 41.2703 485.6 37 491C36.9304 493.639 36.1068 496.375 36.3241 499C36.8575 505.444 40.0823 512.639 41.6505 519C43.6091 526.945 44.9702 534.771 52.0432 539.945C59.4717 545.379 70.1537 545.824 79 547.41C86.843 548.816 94.3754 551.217 102 548L102 551L114 550L114 552C115.797 552 115.521 551.986 117 551C117.707 554.537 118.483 553 121 553C121.895 553 121.386 555.072 122 552C122.224 553.684 122.218 554.313 122 556C126.019 556.828 132.757 559.729 134 554C135.594 555.297 136.018 555.535 138 556C139.303 553.449 141.871 549.559 145 551C146.3 550.35 146 550.853 146 549C150.181 551.264 154.095 548.05 157 553C159.719 552.114 160.197 551.903 162 554C162.986 552.522 163 552.797 163 551C174.236 550.984 175.845 534.869 180.142 527C183.959 520.01 188.858 512.854 190.6 504.961C191.529 500.748 190.814 496.276 191.428 492C192.179 486.773 194.533 481.308 193.667 476C192.472 468.666 187.788 462.072 185.669 455C183.663 448.307 184.066 440.553 180.736 434.285C178.458 429.998 173.462 425.007 169 423.052C163.026 420.433 156.383 423.032 154 415C157.614 415.39 160.604 416.794 164 418C164.991 415.294 165.713 412.868 166 410L169 411C168.985 405.467 167.732 400.435 167 395C161.348 395 154.463 393.937 149 395.51C145.313 396.572 142.242 399.299 139 401.244C135.297 403.466 131.81 404.511 131 409z"/>
<path style="fill:#1d1d1d; stroke:none;" d="M131 407L132 408L131 407z"/>
<path style="fill:#fefefe; stroke:none;" d="M66 431L67 432L66 431z"/>
<path style="fill:#1d1d1d; stroke:none;" d="M144 442C136.782 449.9 126.547 451.693 125 464L127 464L126 468C132.499 471.016 136.445 473.642 144 473.961C148.474 474.149 153.781 471.813 158 472.922C165.258 474.829 175.315 484.613 182.357 475.581C186.159 470.705 179.035 465.439 176.445 461.985C171.695 455.648 166.491 449.312 160 444.719C157.849 443.197 155.554 440.839 152.87 440.358C149.999 439.844 146.896 441.79 144 442M64 482C65.4785 482.986 65.2032 483 67 483L67 479C71.8583 480.227 76.1787 477.776 81 478.48C85.165 479.088 88.9492 481.833 93 483C95.8679 475.757 100.494 468.131 99.2153 460C98.8675 457.789 97.6975 455.839 96.4753 454.004C95.3805 452.36 94.1706 450.724 92.6991 449.394C83.0993 440.722 75.9048 452.783 67.9961 457.209C62.6815 460.184 56.3658 461.125 52.3187 466.093C49.0609 470.093 49.496 476.401 52.8048 480.228C55.629 483.494 60.8186 485.64 64 482z"/>
<path style="fill:#fefefe; stroke:none;" d="M40.6667 451.333C40.2222 451.778 41.2778 451.722 41.3333 451.667C41.7778 451.222 40.7222 451.278 40.6667 451.333M159 455L160 462L159 460C158.521 461.498 158.6 461.35 159 463C157.077 463.902 157.001 464.076 156 466C162.191 468.768 167.132 472.971 174 474C172.987 469.005 169.496 466.863 166.542 462.96C163.995 459.593 163.237 456.333 159 455M55 476C61.1495 475.052 66.4389 469.851 72 467C65.9456 465.215 57.6002 470.713 55 476z"/>
<path style="fill:#1d1d1d; stroke:none;" d="M183 479L184 480L183 479M177 481C174.359 483.266 171.892 487.241 168.791 488.742C165.703 490.236 163.211 488.989 161 492C156.732 492.161 153.238 494.535 149 493C146.114 495.86 143.151 499.372 139.17 500.682C136.54 501.548 133.7 500.845 131.086 501.896C127.7 503.257 125.7 506.657 121.996 507.411C118.399 508.144 112.585 508.87 109 508.121C105.889 507.471 103.173 505.694 100 505.213C95.5014 504.531 91.3527 504.983 87 503.236C82.8311 501.563 79.2743 498.723 75 497.251C71.6742 496.106 68.2267 497.143 65.0008 496.052C58.2275 493.763 55.6771 487.029 48 486C50.4559 491 55.4805 495.487 56 501C64.7609 509 68.7066 520.492 80.3248 525.864C83.1384 527.165 86.318 526.499 89.2855 527.062C93.6426 527.889 97.4974 530.348 102 530.656C105.414 530.89 107.972 529.23 111 531C115.914 528.777 120.825 525.058 126.039 523.712C129.797 522.742 133.681 523.674 137.424 522.521C141.495 521.266 144.699 518.349 149 518C153.122 508.855 163.525 510.426 170.572 504.227C175.49 499.9 178.043 493.081 184 490C182.662 485.854 180.542 483.469 177 481M181 481L182 482L181 481M49 482L50 483L49 482M109.059 483.743C101.228 486.977 108.184 497.702 114.956 494.638C124.227 490.443 117.492 480.26 109.059 483.743M201 483L201 485L203 485C202.455 483.365 202.635 483.545 201 483M247 487C243.4 491.799 239.933 503.252 233.282 504.401C228.741 505.186 225.194 501.483 220 503L226 511C222.299 512.751 216.934 515.187 215.072 519.093C213.251 522.913 216.787 527.796 221.004 527.208C224.224 526.76 227.388 523.775 230 522C230.28 526.561 230.737 529.956 233 534L240 534C239.624 527.338 242.533 521.582 243 515C246.73 518.555 249.869 521.045 255 522C255.002 515.619 247.768 513.41 247.441 507.91C247.152 503.034 253.169 499.888 253.253 495.129C253.306 492.144 248.965 488.932 247 487z"/>
<path style="fill:#fefefe; stroke:none;" d="M198 488L199 489L198 488z"/>
<path style="fill:#1d1d1d; stroke:none;" d="M366 498C369.085 506.641 377.846 507.023 383 514C378.36 515.828 371.068 518.136 367.608 521.815C363.989 525.663 369.061 529.815 373.001 529.562C377.415 529.28 381.848 526.413 386 525C385.593 534.345 382.744 538.872 393 543C394.596 536.375 395.996 529.826 396 523C403.005 523.32 409.199 526.578 416 528C415.708 519.084 407.097 518.038 400 515C401.36 512.15 402.829 509.682 405.184 507.514C407.254 505.609 410.572 503.984 411.168 500.961C412.088 496.302 406.709 493.392 403.015 495.623C398.142 498.565 395.324 507.642 388.986 507.638C384.535 507.635 381.491 503.709 377.961 501.634C374.369 499.524 370.05 498.742 366 498z"/>
<path style="fill:#fefefe; stroke:none;" d="M75 511C82.1661 520.433 96.5683 523.999 108 524C106.063 520.923 102.686 520.352 100 518L98 518C97.4549 519.635 97.6352 519.455 96 520C95.163 516.094 92.855 517.929 89.7778 516.639C85.0571 514.659 80.0327 511.867 75 511M193.333 511.667C193.278 511.722 193.222 512.778 193.667 512.333C193.722 512.278 193.778 511.222 193.333 511.667z"/>
<path style="fill:#1d1d1d; stroke:none;" d="M261.059 532.762C253.821 535.453 257.086 550.721 264.942 548.553C272.625 546.433 270.099 529.4 261.059 532.762M520.514 534.032C514.667 538.095 519.854 554.331 527.683 548.141C533.21 543.771 528.021 528.814 520.514 534.032z"/>
<path style="fill:#fefefe; stroke:none;" d="M183.333 534.667C183.278 534.722 183.222 535.778 183.667 535.333C183.722 535.278 183.778 534.222 183.333 534.667z"/>
<path style="fill:#1d1d1d; stroke:none;" d="M347 544C339.91 552.887 340.874 565.931 340 577C338.66 574.759 338.186 573.584 338 571C333.588 567.653 328.02 564.28 324.557 559.946C321.665 556.327 320.524 551.312 315.985 549.225C310.754 546.819 305.262 549.902 300 550.201C293.982 550.542 287.878 549.164 282.04 551.424C278.218 552.904 276.288 556.366 273.482 559.113C266.325 566.119 260.938 571.541 257 581C255.729 574.305 254.594 566.808 254 560C250.603 559.704 246.507 557.853 243.17 558.796C239.46 559.845 236.867 562.994 233 564C232.345 570.654 230.784 577.266 230.134 584C229.746 588.029 230.838 591.986 230.306 596C229.851 599.423 228.309 602.538 228.06 606C227.832 609.186 227.595 618.433 231 619C229.879 624.226 231.976 627.115 233.363 632C235.021 637.844 235.827 644.948 236.7 651C237.657 657.637 237.534 664.351 238.17 671C238.646 675.987 240.051 680.971 239.946 686C239.833 691.431 237.461 696.5 238.21 702C238.795 706.298 241.17 709.898 242.301 714C243.607 718.74 240.962 723.456 243.858 727.942C249.028 735.95 262.371 736.964 270.285 740.763C276.717 743.851 281.892 748.83 288.285 751.85C292.767 753.967 297.222 753.698 302 754.286C311.213 755.421 323.457 758.781 332 753.657C336.417 751.007 340.827 747.284 343.695 742.985C345.968 739.578 347.101 735.952 350 733L349 728C351.633 726.064 352.428 723.157 354.171 720.424C356.939 716.082 360.577 712.021 362.058 707C363.311 702.751 362.691 698.291 363.681 694C364.488 690.502 366.716 687.477 367.412 684C368.328 679.421 365.329 675.138 368 671C365.772 664.346 368.074 655.998 367 649C374.785 643.841 371.216 634.329 369.465 627.039C368.215 621.836 366.364 615.272 366.058 610C365.805 605.632 367.35 601.357 366.787 597C366.218 592.594 363.591 589.147 362.394 585C361.579 582.172 361.808 578.923 361.424 576C360.517 569.096 361.698 559.273 355 555C355.337 551.216 353.62 549.281 352 546C349.857 545.8 348.789 545.219 347 544M180 546L181 547L180 546M200 548C189.512 558.386 178.579 570.815 164 575.15C156.024 577.521 148.939 571.866 141 572.439C133.623 572.971 126.49 575.451 119 575.869C111.531 576.286 104.442 574.681 96.9992 576.221C89.8529 577.699 83.7904 581.276 77 583.655C70.489 585.937 62.3591 586.652 56.7292 590.879C48.1205 597.342 45.3047 605.246 40.1736 614C38.2047 617.359 34.8606 620.502 33.5633 624.17C32.1448 628.18 33.412 632.845 32.787 637C32.0278 642.048 30.0886 644.918 32 650C28.9278 651.064 28.011 653.194 25.8549 655.549C22.3787 659.344 17.6296 662.596 16.4745 667.911C15.5985 671.943 16.9948 675.964 16.6744 680C16.331 684.325 14.5194 688.667 14.6258 693C14.7734 699.012 19.0441 706.595 23.304 710.66C27.405 714.573 31.3686 713.157 36 715.099C43.0172 718.041 48.4076 724.992 55.0394 728.71C60.0575 731.523 66.5831 731.524 71 735L68 734C70.1778 735.516 70.8222 735.516 73 734L84 741C85.6352 740.455 85.4549 740.635 86 739C91.8837 743.274 98.5986 746.544 106 745C106.781 748.661 110.619 749.006 113.917 750.278C121.022 753.018 130.586 748.374 137 745.056C140.036 743.485 142.366 743.083 144 740C150.076 739.747 154.117 734.156 159 730.951C164.683 727.22 171.04 725.161 177 722.015C181.317 719.737 184.984 716.365 189 713.615C193.871 710.28 198.728 708.174 200 702C203.5 701.216 204.651 698.106 206.245 695C207.907 691.759 209.886 688.547 210.815 685C211.743 681.454 211.33 677.41 212.603 674C214.454 669.038 219.732 666.265 222.062 661.576C223.668 658.342 222.694 654.452 223.379 651C224.491 645.395 227.563 639.856 227.371 634C227.227 629.611 224.502 625.041 222.939 621C221.698 617.792 220.702 614.152 218 612C220.581 604.833 216.689 601.467 213.273 595.791C211.35 592.595 210.176 588.527 209 585C210.635 585.545 210.455 585.365 211 587C211.712 584.801 208.802 583.382 210 582C208.207 578.733 209.128 571.64 205 571C206.72 569.025 207.068 569.234 209 571C209.542 568.83 209.84 569.099 208 568L208 566C209.646 564.551 209.453 564.208 209 562C211.85 560.444 212.503 559.207 213 556C214.023 557.534 213.805 557.402 215 558C215.908 553.91 216.544 550.178 216 546C210.509 546.045 205.412 547.585 200 548M430 554C430.18 563.303 426.398 571.886 426 581C422.27 580.879 419.478 580.402 417.417 576.941C414.119 571.401 417.333 565.351 414.539 560.055C412.862 556.875 409.876 555.988 407.039 554.177C404.906 552.816 403.193 550.722 400.83 549.742C393.659 546.766 387.599 551.202 385.645 558C384.039 563.591 383.548 569.574 381.391 575C378.533 582.19 375.245 586.216 378 594L376 593C376.618 597.891 376.56 603.28 377.978 608C379.784 614.011 384.61 620.609 388.085 625.816C391.981 631.654 397.181 632.623 399 640L396 640L393 645C394.556 650.285 392.934 655.638 392.552 661C392.094 667.432 394.023 677.326 391 683C391.416 689.941 393.266 697.116 393 704C394.797 704 394.522 703.986 396 703C394.247 707.92 394.238 714.977 400 717C400.254 719.932 400.851 722.29 402 725L405 724C405.805 726.325 407.543 727.534 408.586 729.704C411.545 735.863 412.522 740.914 418.015 745.812C422.907 750.174 428.965 752.297 435 754.53C451.007 760.453 467.483 762.627 484.424 761.031C492.16 760.302 502.818 762.864 509.667 757.932C512.784 755.688 511.608 747.71 513.758 744C517.073 738.283 522.11 733.794 525.176 728C530.652 717.654 531.747 707.077 534 696C531.305 687.523 539.135 679.521 537 671C538.195 672.223 538.316 672.42 539 674C541.695 670.055 541.176 666.079 539 662L542 663L542 657C545.752 656.218 546.415 653.606 546 650C554.642 645.465 549.623 634.603 549.089 627C548.695 621.375 549.047 615.513 547.575 610C545.944 603.892 543.036 598.322 541.594 592C540.696 588.064 541.636 583.854 540.486 580C538.164 572.213 530.926 566.036 523.019 564.667C518.005 563.8 518.223 568.541 516.791 572C514.648 577.175 512.814 581.247 513.02 587C513.115 589.632 515.09 593.208 514.432 595.682C513.892 597.711 511.647 597.734 510 598C509.809 593.548 510.727 585.718 507 583C507.791 578.961 506.01 575.993 505.637 572C505.115 566.399 506.373 561.302 503.658 556.004C501.035 550.885 496.934 548.024 492 552C484.231 547.988 470.816 546.777 469 558C467.153 557.79 465.857 557.806 464 558C459.433 542.489 440.518 546.627 430 554z"/>
<path style="fill:#fefefe; stroke:none;" d="M176 548L177 549L176 548M74.6667 553.333C74.2222 553.778 75.2778 553.722 75.3333 553.667C75.7778 553.222 74.7222 553.278 74.6667 553.333M77.6667 553.333C77.2222 553.778 78.2778 553.722 78.3333 553.667C78.7778 553.222 77.7222 553.278 77.6667 553.333M385 598L383 598C384.062 603.599 386.262 607.795 388.417 613.001C389.468 615.541 389.871 618.519 391.574 620.737C394.343 624.342 399.362 627.27 403 630C406.25 622.106 413.29 620.125 420 615.431C431.803 607.175 440.009 595.542 456 600.481C465.04 603.273 470.23 613.135 479 615.501C483.41 616.69 489.438 617.87 494 617.455C499.034 616.998 503.821 615.172 509 615.895C513.886 616.578 517.114 619.866 521.039 622.455C528.163 627.154 534.979 630.639 538.722 639C540.41 642.77 540.544 647.113 542 651C550.714 641.443 548.999 625.879 545.026 614.17C543.841 610.677 541.942 607.646 541.117 604C540.286 600.332 538.944 596.701 538.326 593C537.691 589.2 538.216 585.57 536.442 582C533.242 575.558 528.938 571.005 522 569C520.289 573.906 516.889 578.441 516.367 583.711C515.695 590.502 523.162 596.088 515.142 602.151C503.671 610.824 489.844 602.39 479 598.126C472.553 595.59 465.521 596.087 459 594.211C451.798 592.138 445.027 587.745 438 585.075C431.373 582.557 423.518 587.6 417.094 583.258C409.524 578.141 412.575 570.111 409.397 563.279C408.098 560.488 403.954 559.615 401.576 557.91C399.494 556.418 396.943 553.981 394.144 554.242C389.035 554.717 389.17 564.366 389.038 567.911C388.837 573.3 384.915 577.007 383.509 582C382.094 587.028 383.787 593.076 385 598M38 644C43.2009 639.772 42.1132 634.434 45.1644 629.093C47.2279 625.482 51.4302 624.075 53.8665 620.79C56.6094 617.092 56.7474 611.731 62 611C66.5873 602.477 72.7402 602.149 81 598.857C84.3077 597.538 86.9292 595.099 90 593.36C93.4715 591.393 99.0765 588.335 102 592C109.012 589.151 114.162 594.589 121 593.653C127.093 592.819 132.694 590.121 139 589.915C145.33 589.709 151.577 591.433 158.004 590.826C162.754 590.378 167.233 588.13 172 588.083C176.148 588.042 179.916 589.899 184 590C185.8 594.135 189.283 596.813 191 601C197.063 601.788 197.864 613.324 203 616C202.014 617.479 202 617.203 202 619C205.623 623.756 206.667 632.779 207.603 638.714C208.266 642.915 207.318 646.369 212 648C212.819 643.654 214.783 638.572 214.34 634.17C213.858 629.365 210.926 625.479 209.468 621C207.875 616.109 208.253 610.858 206.59 606C203.407 596.698 198.37 588.205 197.88 578C197.43 568.638 203.094 562.383 206 554C198.867 557.349 195.642 564.715 189.791 569.585C185.062 573.522 175.043 577.594 168.996 578.981C163.191 580.314 154.646 581.741 148.715 581.007C144.999 580.547 141.785 578.299 138 578.194C132.317 578.037 126.663 580.475 121.001 580.914C113.075 581.528 104.781 580.516 97 581.353C90.6011 582.041 83.099 585.691 77 587.852C73.7932 588.988 69.9949 589.022 67.0895 590.861C58.117 596.542 57.2416 606.241 51.5957 614C44.313 624.008 37.113 630.76 38 644M435 561C438.9 563.087 443.233 564.542 446.985 566.891C449.811 568.66 451.903 571.64 455.089 572.809C458.478 574.053 461.646 572.315 465.05 572.677C470.63 573.272 475.823 578.817 479 583C486.161 581.299 492.552 577.649 500 577C499.892 573.295 501.188 569.671 500.796 565.999C499.561 554.413 485.461 557.189 477 555C473.162 560.337 469.932 565.228 463 566C462.591 562.663 461.813 558.002 458.701 556.028C455.878 554.237 452.052 555.355 449 555.714C443.335 556.383 437.417 554.681 435 561M263 587C272.143 580.21 279.654 572.689 287 564C290.626 566.442 293.849 564.876 298 565.108C302.692 565.371 309.961 566.464 314.196 568.547C319.566 571.188 323.726 579.113 330 578C330.513 580.475 330.604 580.575 333 580C333.542 586.555 336.179 591.599 343 593C338.999 581.247 334.496 573.343 323 568C323.091 565.931 323.049 564.913 322.118 562.976C317.512 553.395 310.603 557.348 302 557.127C295.851 556.968 287.546 557.306 282.375 561.075C279.189 563.397 276.903 567.125 274.011 569.829C268.401 575.076 263.707 578.962 263 587M125.333 561.667C125.278 561.722 125.222 562.778 125.667 562.333C125.722 562.278 125.778 561.222 125.333 561.667M351 562C351 568.174 351.699 573.903 352.572 580C353.772 588.384 354.626 599.282 344.004 601.042C342.454 601.298 340.763 601.485 339.289 600.802C334.757 598.702 332.949 592.781 329.402 589.559C321.656 582.524 308.014 580.122 298 581.105C293.392 581.557 289.316 584.146 285 585.655C279.792 587.475 273.888 588.304 269 590.894C265.054 592.985 260.055 598.249 255.109 595.882C247.509 592.246 252.12 579.246 251.985 573C251.914 569.734 251.701 565.308 247.867 564.333C238.292 561.899 236.499 571.33 235.829 578C234.348 592.749 230.158 609.023 237 623C243.176 617.358 248.526 610.275 255.019 605.135C260.773 600.579 268.38 598.352 275 595.378C286.688 590.128 299.113 585.402 312 589.508C317.154 591.151 320.385 594.3 324.87 597.061C327.742 598.829 331.17 599.786 333.897 601.726C336.99 603.928 338.257 606.834 342 608L341 611C346.467 613.491 347.982 619.029 350.935 623.892C352.641 626.7 355.315 627.907 357.447 630.274C360.965 634.182 361.952 638.572 367 641C365.772 631.881 361.607 623.817 359.958 615C358.99 609.82 360.473 604.269 359.815 599C359.248 594.462 356.8 590.48 355.935 586C354.39 577.996 356.14 568.899 351 562z"/>
<path style="fill:#1d1d1d; stroke:none;" d="M211 563L212 564L211 563z"/>
<path style="fill:#fefefe; stroke:none;" d="M359.333 564.667C359.278 564.722 359.222 565.778 359.667 565.333C359.722 565.278 359.778 564.222 359.333 564.667z"/>
<path style="fill:#1d1d1d; stroke:none;" d="M36.2284 567.028C27.4755 572.364 35.9978 586.501 44.6057 580.971C52.5932 575.841 45.253 561.526 36.2284 567.028M326.667 576.333C326.222 576.778 327.278 576.722 327.333 576.667C327.778 576.222 326.722 576.278 326.667 576.333z"/>
<path style="fill:#fefefe; stroke:none;" d="M340.333 577.667C340.278 577.722 340.222 578.778 340.667 578.333C340.722 578.278 340.778 577.222 340.333 577.667M499 580L500 581L499 580z"/>
<path style="fill:#1d1d1d; stroke:none;" d="M213.333 591.667C213.278 591.722 213.222 592.778 213.667 592.333C213.722 592.278 213.778 591.222 213.333 591.667z"/>
<path style="fill:#fefefe; stroke:none;" d="M240 625C238.943 627.977 237.427 630.814 237.109 634C236.538 639.725 239.162 644.529 240.165 650C240.919 654.112 240.646 657.967 242 662C245.761 660.468 248.949 658.71 253 658C255.872 667.253 259.966 674.18 265.355 682C267.505 685.12 268.4 689.051 271.225 691.698C274.69 694.944 280.584 696.487 285 697.997C289.32 699.474 294.442 702.278 299 702.562C303.148 702.821 306.243 700.053 310 698.913C312.611 698.121 315.423 698.74 317.91 697.478C321.114 695.853 323.439 692.502 326.015 690.086C329.403 686.91 333.616 684.486 336.606 680.91C341.717 674.797 339.265 667.776 342 661C339.821 660.274 340.22 660.561 341 659C333.772 651.014 346.512 644.376 353 643C353.953 646.611 357.381 650.262 357.165 654.004C356.842 659.595 350.753 662.003 349.857 667.054C348.855 672.707 348.049 680.228 348.03 686.001C348.018 689.634 349.364 693.428 348.333 696.999C347.222 700.847 343.971 703.623 342 707C340.814 705.964 340.396 705.661 339 705C338.677 707.032 338.66 707.982 339 710C335.547 710.947 333.659 712.695 331 715L331 720C329.814 718.964 329.396 718.661 328 718C328.661 719.396 328.964 719.814 330 721C326.011 722.735 327.396 725.184 325.889 728.611C324.801 731.085 321.43 733.388 319 734.361C305.924 739.598 292.749 728.76 282.611 722.722C276.397 719.021 268.945 717.492 263.028 712.694C257.515 708.225 260.789 695.661 253 694C255.135 691.341 256.511 689.391 257 686L254 686L253 678C249.891 678.444 247.116 678.33 244 678L243 683L245 683C243.783 687.914 242.454 696.021 243.344 701C243.974 704.52 246.152 707.482 246.801 711C247.554 715.083 246.009 720.034 249.319 723.211C256.366 729.976 267.9 729.611 275 736C274.755 736.041 279.186 735.593 278 735L279 737C284.048 738.442 287.102 744.367 292 746L294 745C296.906 745.83 302.114 744.797 305 746L307 748C307.089 748 310.847 747.282 310 747C309.846 746.949 311.306 748.923 312 749C312.836 749.093 314.966 747.994 315 748C314.924 747.987 318.182 749.649 319 750L321 749C324.415 749.285 327.782 750.86 331 748C333.781 745.528 336.261 743.196 339 740L339 738C340.534 735.37 343.061 733.817 344 731C344.663 729.012 343.071 725.858 344 724C344.792 722.417 347.283 721.614 348 720C349.317 717.038 350.408 713.866 352 711C352.654 709.823 354.399 709.203 355 708C355.395 707.211 354.573 705.769 355 705C356.554 702.203 358 698.276 358 695C358 693.099 356.21 691.371 357 689C358.054 685.838 360.946 683.162 362 680C363.483 675.552 361 670.402 361 666C361 661.353 364.414 651.829 362 647C361.399 645.797 359.654 645.177 359 644C354.822 636.479 346.539 630.782 342 623C340.885 621.089 340.115 617.911 339 616C337.335 613.145 334.031 612.611 332 610C331.426 609.262 330.635 606.635 330 606C327.877 603.877 324.3 604.533 322 603C317.42 599.946 314.092 594.697 309 593C303.451 591.15 300.799 594.001 296 596C291.185 598.006 284.693 595.654 280 598C277.701 599.149 276.349 602.021 274 603C273.153 603.353 271.838 602.628 271 603C268.147 604.268 265.876 606.802 263 608C261.085 608.798 258.752 608.832 257 610C251.189 613.874 245.039 626.26 240 625M210 593L211 594L210 593M154 599C150.272 595.157 139.156 597.758 134.001 597.831C131.274 597.87 128.981 597.068 127 599C122.739 598.462 118.745 600.543 114.424 599.966C107.549 599.047 101.217 595.429 94 597.098C89.5326 598.131 87.0031 602.088 82.8302 603.487C78.2805 605.013 74.1106 604.224 70.0185 607.419C65.6601 610.821 64.629 615.544 61.7863 619.957C59.4173 623.634 55.1779 625.37 52.858 629.043C51.1212 631.793 51.2569 635.137 49.8287 638C47.1438 643.383 43.1036 646.813 42 653C34.4018 653.085 25.3013 657.937 23.3187 666C22.3451 669.959 23.9696 674.023 23.8711 678C23.7735 681.945 22.3469 685.877 22.5448 689.83C22.7224 693.38 24.2525 696.321 24 700C27.7744 701.15 29.5807 704.235 33.0147 705.973C35.5187 707.24 38.3527 706.789 41 707.475C45.7994 708.717 55.4572 715.284 57 720C62.2587 720.467 66.7612 724.018 71.4244 726.275C76.4065 728.687 84.5528 730.752 90 731C90.9919 735.534 97.8861 733.213 100 738C103.104 737.102 112.605 737.939 113 741C114.195 740.402 113.977 740.534 115 739C118.519 742.035 121.551 741.824 126 741.285C128.957 740.926 132.125 741.077 134.791 739.544C141.407 735.739 145.901 728.957 153 725.309C158.189 722.642 163.892 721.398 168.996 718.673C173.435 716.303 176.868 712.594 181.09 709.911C185.882 706.868 190.815 704.488 194.471 699.961C200.192 692.876 202.665 684.699 204.576 676C205.486 671.854 206.894 667.273 206.73 663.004C206.479 656.495 203.692 650.241 202.12 644C200.221 636.465 199.503 628.266 196.657 621C194.692 615.985 190.807 611.303 187.623 607C181.196 598.315 174.55 593.039 163.015 595.773C159.913 596.508 156.777 597.489 154 599z"/>
<path style="fill:#1d1d1d; stroke:none;" d="M215.333 595.667C215.278 595.722 215.222 596.778 215.667 596.333C215.722 596.278 215.778 595.222 215.333 595.667M164 596L165 597L164 596z"/>
<path style="fill:#fefefe; stroke:none;" d="M448 602C444.904 605.545 440.618 606.39 437 609.278C431.691 613.516 427.671 619.126 422 622.956C418.279 625.469 413.36 626.83 410.278 630.144C408.18 632.4 407.369 635.314 406.008 638C404.303 641.367 401.566 644.332 400.51 648C399.101 652.893 400 658.942 400 664C403.968 661.651 408.983 656.502 413.956 657.627C420.038 659.004 418.944 665.52 420.596 670C421.966 673.718 425.208 676.477 427.004 680C429.958 685.795 430.114 692.721 429 699C433.261 701.281 437.877 702.943 441.161 706.669C444.227 710.148 445.74 715.332 450.174 717.44C455.177 719.819 465.577 723.064 471 721.899C475.371 720.96 478.769 717.669 483 716.283C486.439 715.157 490.518 716.003 493.775 714.432C496.704 713.02 497.382 709.547 498.994 707.004C502.264 701.844 506.501 699.219 508 693L505 693C506.257 691.334 507.276 689.961 509.059 688.795C522.382 680.081 527.353 707.385 513.059 701.671C511.364 700.993 510.336 700.181 509 699C508.413 701.677 509.384 702.76 511 705C507.083 706.67 504.65 708.721 504 713C501.19 714.794 500.554 718.276 497.781 719.972C494.946 721.706 491.138 720.705 488.015 721.343C484.328 722.097 481.795 724.64 478 725C472.104 731.02 464.057 725.376 457 726C455.089 722.382 447.772 722.589 444.306 719.389C441.107 716.436 439.918 711.432 436.778 708.222C433.53 704.902 428.838 703.836 425.611 700.778C421.408 696.794 423.684 692.915 423.889 688C424.054 684.034 422.276 678.309 419.917 675.111C417.437 671.75 414.329 673.999 411 673.278C407.476 672.514 404.106 668.703 402 666L400 666C398.638 674.133 396.759 684.896 398.095 693C398.606 696.101 398.691 699.848 401 702L400 708C404.065 712.019 404.969 717.81 409.108 721.791C415.954 728.375 424.082 729.237 432 733.31C435.22 734.967 437.812 737.619 441 739.353C451.828 745.241 467.256 750.427 479 745L479 747C484.909 746.686 492.252 747.062 497 743C498.186 744.036 498.604 744.339 500 745C499.232 743.686 499.314 743.768 498 743C499.832 743.031 499.559 742.92 501 744C503.987 742.718 506.34 740.851 509 739C510.904 732.125 518.726 728.53 521.236 721.957C523.844 715.126 526.495 707.223 527.675 700C528.751 693.418 528.135 686.636 529.322 680C530.614 672.776 534.485 666.292 535.714 659C537.33 649.417 537.432 630.479 523 631C520.534 622.892 515.315 622.96 508 622.486C499.667 621.946 488.858 623.063 481 620.363C473.923 617.931 469.046 611.99 463 607.901C458.394 604.787 453.231 603.636 448 602M215 603L216 604L215 603z"/>
<path style="fill:#1d1d1d; stroke:none;" d="M170 611C163.996 616.271 157.097 614.112 150 613.069C146.455 612.549 142.579 611.064 140 614L138 613C134.712 616.118 131.183 618.229 128.424 621.971C126.347 624.789 123.195 627.011 121.571 630.104C117.927 637.042 122.211 644.861 130.039 646.201C135.014 647.053 139.668 644.55 144.424 644.224C146.885 644.055 149.121 645.499 151.576 645.413C154.221 645.32 156.364 643.423 159.001 643.263C162.497 643.051 166.43 644.71 170 645C171.908 642.138 173.861 641.674 176 639L177 640C177.863 637.729 179.262 635.439 179.36 632.961C179.557 627.931 175.577 623.578 174 619L178 619C176.519 614.684 174.316 612.481 170 611M98 642C104.252 629.98 94.7717 613.502 80.7191 615.383C75.6969 616.056 74.4066 621.455 71.3812 624.74C67.113 629.374 59.6305 630.872 56.2392 636.13C52.2342 642.339 54.7562 659.755 64.9961 656.438C69.7204 654.907 72.7751 650.981 77.0039 648.652C80.5768 646.684 84.2344 647.554 88 646.57C91.666 645.612 94.2795 642.715 98 642z"/>
<path style="fill:#fefefe; stroke:none;" d="M155 615L156 616L155 615M365 615L366 616L365 615M214.333 616.667C214.278 616.722 214.222 617.778 214.667 617.333C214.722 617.278 214.778 616.222 214.333 616.667z"/>
<path style="fill:#1d1d1d; stroke:none;" d="M267.015 619.576C263.905 620.452 261.164 622.918 260.108 626.005C258.904 629.523 260.039 634.304 259.996 638C259.919 644.703 258.547 651.248 259.055 658C259.365 662.12 261.9 667.726 267.004 666.199C270.843 665.051 273.305 661.237 275.999 658.553C283.055 651.523 287.552 645.325 284.032 635C281.459 627.451 277.039 616.754 267.015 619.576z"/>
<path style="fill:#fefefe; stroke:none;" d="M142 621C142.661 622.396 142.964 622.814 144 624C142.805 625.223 142.684 625.42 142 627L137 626C137.661 627.396 137.964 627.814 139 629L133 632L134 636C132.521 635.014 132.797 635 131 635C131.757 638.531 135.7 638.59 138.972 637.444C141.941 636.405 142.384 633.194 144.25 631.028C146.282 628.668 148.974 627.781 152 627.417C154.578 627.106 158.937 627.144 160.75 629.278C163.037 631.969 163.193 637.369 168 636.861C174.159 636.21 173.774 626.65 169.667 623.722C167.426 622.125 163.573 623.244 161 622.917C157.271 622.442 153.829 620.67 150.028 620.278C147.238 619.99 144.706 620.922 142 621z"/>
<path style="fill:#1d1d1d; stroke:none;" d="M295 621L296 625C284.312 630.91 297.857 643.331 302.662 648.551C304.651 650.712 305.087 653.586 308 654C308.214 656.093 308.44 658.015 309.367 659.947C311.813 665.042 318.93 666.327 323.961 664.558C331.85 661.784 340.006 649.422 335.563 641.214C333.015 636.505 323.419 633.125 319 630.001C315.246 627.347 308.561 620.937 304 623C301.754 619.598 298.721 620.303 295 621M146 621L147 622L146 621z"/>
<path style="fill:#fefefe; stroke:none;" d="M64 644L62 650C73.6189 645.531 79.6108 633.521 91 629C90.6216 626.449 90.0123 624.373 89 622C78.6613 626.865 76.5226 642.138 64 644M300 623L301 624L300 623M264 661C275.043 657.212 268.104 650.062 270.875 642C272.386 637.605 278.382 632.481 273 629C273.986 627.521 274 627.797 274 626C270.291 625.204 266.692 625.086 264.858 629.109C263.393 632.323 264 636.564 264 640L264 661z"/>
<path style="fill:#1d1d1d; stroke:none;" d="M271.667 627.333C271.222 627.778 272.278 627.722 272.333 627.667C272.778 627.222 271.722 627.278 271.667 627.333z"/>
<path style="fill:#fefefe; stroke:none;" d="M317 656C317.651 651.025 322.768 645.905 322.211 641.054C321.64 636.077 310.104 630.799 306.001 628.997C304.204 628.208 302.182 627.517 300.399 628.733C298.047 630.337 297.656 633.487 298.998 635.83C301.038 639.39 305.128 641.899 307.79 645.001C311.036 648.782 312.503 653.604 317 656M223.333 628.667C223.278 628.722 223.222 629.778 223.667 629.333C223.722 629.278 223.778 628.222 223.333 628.667M356 630L357 631L356 630z"/>
<path style="fill:#1d1d1d; stroke:none;" d="M443 663C445.403 661.01 448.684 660.011 450.047 656.941C451.309 654.1 450.242 651.198 449.948 648.286C449.278 641.67 448.036 632.779 439.995 630.988C437.086 630.34 433.955 631.237 431 631.062C427.62 630.862 424.339 629.805 421.108 631.438C409.838 637.133 410.003 658.803 425.826 656.691C427.378 656.483 428.976 655.324 430.572 655.671C432.59 656.11 433.976 658.391 435.518 659.603C437.766 661.371 440.308 662.176 443 663M135 632L136 633L135 632z"/>
<path style="fill:#fefefe; stroke:none;" d="M225.333 634.667C225.278 634.722 225.222 635.778 225.667 635.333C225.722 635.278 225.778 634.222 225.333 634.667M419 651C428.682 649.619 432.915 641.324 441 637L441 635C437.653 634.366 428.202 634.184 425.302 636.029C421.542 638.42 419.282 646.794 419 651M74 635L75 636L74 635z"/>
<path style="fill:#1d1d1d; stroke:none;" d="M490 642C482.327 643.153 475.034 651.59 474 659C478.023 662.57 482.755 664.29 486.787 667.56C489.546 669.798 490.751 673.347 493.213 675.867C498.415 681.19 505.248 680.299 510.776 675.946C515.683 672.083 516.854 665.35 521 661C521.111 656.064 522.025 652.787 520 648C515.377 649.531 510.711 648.938 506 650C503.895 644.652 495.158 634.053 490 642z"/>
<path style="fill:#fefefe; stroke:none;" d="M224 641L225 642L224 641M215 643L216 644L215 643M441.333 643.667C441.278 643.722 441.222 644.778 441.667 644.333C441.722 644.278 441.778 643.222 441.333 643.667M494 643C490.757 647.202 482.244 650.155 480.712 655.166C479.523 659.057 483.982 660.879 487.004 661.346C492.844 662.25 498.35 656.977 503 654L496 643L494 643z"/>
<path style="fill:#1d1d1d; stroke:none;" d="M115 671C117.578 664.647 121.969 665.638 128 665C126.509 660.463 124.63 656.014 121.965 652.019C117.515 645.351 105.418 644.226 102.237 653.001C99.0963 661.662 108.074 668.722 115 671M187 648C185.799 649.687 185.969 649.763 184 650C183.276 653.039 183.026 655.878 183 659C179.929 659.167 177.005 659.322 174 660L174 663L173 661C169.864 663.997 167.836 666.566 168 671C161.783 671 162.242 676.879 158 679L157 678L157 680L155 678C149.844 679.626 142.473 678.381 139 683C137.814 681.964 137.396 681.661 136 681C133.536 683.533 131.572 684.862 128 685L128 687C122.891 686.078 115.316 687.249 111 685C96.4022 685.756 84.875 676.904 71.0147 674.897C66.2186 674.203 63.4483 680.86 58.439 678.623C55.7026 677.402 54.0844 674.34 51.8295 672.474C48.4561 669.682 44.0934 668.343 40 667C38.0193 679.718 51.3114 685.045 61 689L60 691C64.0683 693.369 67.8504 696.254 69 701C71.3374 701.519 72.6403 701.48 75 701C81.6879 716.006 102.844 721.813 118 716.451C124.809 714.041 130.43 708.987 137 706.036C142.263 703.671 148.1 703.591 152.96 700.15C157.383 697.017 159.612 691.945 163.3 688.109C165.812 685.496 169.063 684.622 171.815 682.441C174.603 680.229 175.96 676.94 177.94 674.089C182.772 667.132 198.22 658.619 195 649C191.83 649.894 190.027 649.198 187 648M516 648L517 649L516 648z"/>
<path style="fill:#fefefe; stroke:none;" d="M211 651L211 653L213 653L213 651L211 651M212 654L212 658C213.267 656.457 213.489 655.952 214 654L212 654z"/>
<path style="fill:#1d1d1d; stroke:none;" d="M293 678C294.253 680.158 294.877 681.525 295 684C307.189 688.511 306.024 667.49 299.776 662.148C292.285 655.743 287.243 667.07 284.134 672.286C282.512 675.007 280.323 678.67 282.042 681.841C285.478 688.175 291.105 681.621 293 678M450 671C450.41 676.448 448.296 682.274 452.419 686.772C456.645 691.381 460.853 688.638 466 688.378C469.921 688.18 474.371 689.297 476.346 684.735C479.787 676.787 470.228 663.923 462 663.567C457.311 663.365 453.48 668.536 450 671z"/>
<path style="fill:#fefefe; stroke:none;" d="M66 686C68.6134 695.119 80.5296 698.383 85 707C95.3508 705.93 106.372 710.597 116.826 708.711C122.984 707.601 129.052 701.775 135 699.438C144.231 695.81 150.973 695.389 156 686C146.956 686.394 140.465 691.565 132 693.715C124.886 695.523 115.881 694.594 108.576 694.1C96.7295 693.297 86.9658 683.889 75.0147 683.408C71.8113 683.279 69.0345 685.256 66 686M305 709C302.08 708.137 299.077 708.332 296.17 707.526C293.653 706.829 291.553 705.192 288.985 704.589C284.922 703.637 282.07 704.144 279 701L270 700C267.853 697.728 266.788 699.555 266 702C268.123 701.927 268.25 701.913 268 704C272.211 706.791 276.031 709.893 279 714C283.878 714.859 287.932 717.436 293 718L292 720C295.55 721.65 299.109 723.364 302 726C306.434 725.844 311.576 730.465 315.726 728.553C319.983 726.592 322.052 718.786 324.351 715.015C328.456 708.28 336.456 704.033 339.972 697C341.72 693.505 341 688.795 341 685C332.38 688.156 328.711 697.56 320.961 701.689C315.351 704.677 307.472 701.567 305 709M396 685L397 686L396 685M206.333 690.667C206.278 690.722 206.222 691.778 206.667 691.333C206.722 691.278 206.778 690.222 206.333 690.667z"/>
<path style="fill:#1d1d1d; stroke:none;" d="M339.333 707.667C339.278 707.722 339.222 708.778 339.667 708.333C339.722 708.278 339.778 707.222 339.333 707.667z"/>
<path style="fill:#fefefe; stroke:none;" d="M47 712L48 713L47 712z"/>
<path style="fill:#1d1d1d; stroke:none;" d="M10 725C14.4366 729.064 16.5533 739.8 10.8164 743.991C7.52643 746.394 3.69683 745.676 0 745C0.97836 750.88 5.90355 751.108 11 750C9.98973 755.221 5.36475 758.908 4.60417 764C4.13484 767.142 5.76817 770.227 7 773C12.3234 771.403 14.7381 765.788 17 761C18.3344 764.162 17.9952 771.975 20.7238 773.914C23.2625 775.717 25.4514 772.149 26.0764 770.15C27.5072 765.576 25.3683 759.667 25 755C28.6982 754.932 35.4795 758.746 38.5262 756.878C41.3354 755.155 39.6484 751.225 37.7176 749.588C35.8282 747.986 33.177 747.635 31 746.562C27.516 744.847 24.6486 742.403 21 741C21.8682 736.886 22.3552 724.112 16.7731 722.877C14.5718 722.39 11.9236 724.153 10 725M328.333 722.667C328.278 722.722 328.222 723.778 328.667 723.333C328.722 723.278 328.778 722.222 328.333 722.667z"/>
<path style="fill:#fefefe; stroke:none;" d="M51 724L52 725L51 724M301 727L302 728L301 727M413.667 732.333C413.222 732.778 414.278 732.722 414.333 732.667C414.778 732.222 413.722 732.278 413.667 732.333M87 734L87 736C88.6352 735.455 88.4549 735.635 89 734L87 734M0 749L0 775L20 775C19.1319 770.324 19.4731 765.128 17 761C14.0187 765.437 11.9087 770.554 7 773C6.10169 770.19 4.42267 767.021 5.03164 764C6.07041 758.846 10.3987 755.536 11 750C7.02482 750.565 3.84848 750.071 0 749z"/>
</svg>
